<?xml version="1.0" standalone="no"?><!DOCTYPE svg PUBLIC "-//W3C//DTD SVG 1.1//EN" "http://www.w3.org/Graphics/SVG/1.1/DTD/svg11.dtd"><svg t="1574074571276" class="icon" viewBox="0 0 1024 1024" version="1.1" xmlns="http://www.w3.org/2000/svg" p-id="1304" xmlns:xlink="http://www.w3.org/1999/xlink" width="200" height="200"><defs><style type="text/css"></style></defs><path d="M877 308.5c3.3-0.1 6.2 1 8.7 1.9 1.2 0.5 2.3 0.8 3.5 1.2 3.5 1.4 6.7 3.5 9.7 5.4 1.8 1.2 4 2.6 4.9 4.7 0.9 2.3-0.4 6.8-1.1 8.4-0.5 1.3-1.5 2.5-2.2 3.7-0.7 1.1-1.5 1.9-2.2 2.9l-1.8 1.8c-0.6 0.9-2.2 2.3-3.1 3l-3.8 3.8c-1.5 1.5-5 5-5.4 7.3 0.9 0 1.6-0.6 2.2-0.8 2.4-1 4.3-2.2 6.4-3.4 6.9-4 12.9-9 19.3-13.6 1.8-1.3 3.4-2.4 5.4-3.6 0.5-0.3 1.1-0.8 1.7-1 0.6-0.2 3.3 0 3.8 0.1h1.1c0.7 0.2 1.4 0.1 2.1 0.3 1.9 0.6 3.6 1 5.2 1.9 2.2 1.2 4 3.6 4.8 6.3 0.2 0.7 0.1 1.4 0.3 2.2 0.2 0.9 0.2 4.1-0.1 5-0.5 1.5-0.5 3.1-1.1 4.5-0.8 2.2-1.6 4.3-2.4 6.4-0.6 1.4-1.4 3-2.2 4.3-0.4 0.7-0.7 1.4-1.1 2.2-0.8 1.4-1.7 2.9-2.5 4.3-0.8 1.5-2 2.8-2.9 4.3-1.4 2.4-3.1 4.7-4.4 7.2-6.9 12.5-12.3 25.8-24.4 33-1.8 1.1-4.2 1.7-7 1.7-0.6 0-1 0.1-1.4 0h-2.7c-1.5-0.5-6.7 0-7.8 0.5-1.4 1-2.9 1.9-4.3 2.9-3.5 2-6.8 4.3-10.1 6.4-9.5 6.1-19.1 12.1-28.8 18.1-2.4 1.5-4.7 2.9-7 4.4-0.8 0.6-1.5 1.4-2.2 2-0.7 0.5-2.6 2.6-2.3 3.7 2.1 0 5.2-1.9 6.8-2.7 4.5-2.2 8.8-4.6 13.2-7 1-0.6 2.1-0.9 3.2-1.4 1.4-0.6 2.8-1.4 4.1-2 1.9-0.9 3.9-1.5 5.8-2.3 1.6-0.7 3.3-1 4.8-1.8 1.3-0.7 2.9-1 4.2-1.7 2.9-1.5 6.1-2.4 9.2-3.8 3-1.4 6.1-2.7 9.1-4.2 0.5-0.3 1-0.7 1.4-1l3.9-2.1c1.1-0.6 2.2-0.9 3.4-1.4 5.9-2.5 16.7-4 20.5 1.5 0.8 1.1 1.5 2.5 2 3.9 0.6 1.9-0.1 4.2-0.6 5.6-1.5 3.8-5.1 7.5-8.2 9.7-0.2 0.3-0.5 0.5-0.7 0.8-2.2 1.5-3.9 3.8-6 5.4-2.7 2.1-4.9 4.9-7.7 6.8-1.1 0.7-2 2-3.1 2.7-1.6 1.1-3.4 2.1-5 3-3.5 2.1-7.8 3.7-11.7 5.4-1.9 0.8-4.6 2-5.7 3.5 0 1.5 0.1 2.6 0.8 3.4 2.2 0 4.4-0.1 6.6-0.1 1.2 0 2.9 0.2 3.8-0.1h5.3c1.9-0.5 4.2-0.6 6.1-1.3h0.7c1.2-0.3 2.6-0.2 3.8-0.5 0.8-0.2 3.1-0.1 3.7 0.1 0.8 0.2 1.5 0 2.2 0.2 2.8 0.8 5.9 1.5 6.8 4.2 0.8 2.2-0.8 3.9-1.5 5-0.5 0.8-0.8 1.7-1.4 2.5-0.4 0.7-0.7 1.4-1.1 2-1.3 2.1-3.5 4.2-6 5.1-4.4 0.1-8.8 0.1-13.3 0.2-2.5 0.6-4.9 0.9-7.1 1.8-1 0.4-2.1 0.9-3.1 1.3-0.4 0.2-0.7 0.5-1.1 0.7 0 0.9-0.4 2.5-0.1 3.4 0.4 1.1 0.1 2.5 0.4 3.7 0.8 3 1.3 6 2.2 8.8 0.8 2.2 1 4.5 1.7 6.8 0 0.6 0.1 1.2 0.1 1.8 0.5 1.5 0 5.2-0.4 6.5 0 0.4-0.1 0.7-0.1 1.1-0.3 0.8-0.5 1.9-0.8 2.7 0 0.3-0.1 0.5-0.1 0.8-1.8 4.4-3.1 9.7-5.8 13.3-0.6 0.8-1 1.8-1.5 2.7-1.1 1.9-2.7 3.6-4.3 5.2-0.5 0.5-1.9 2-3.2 1.6-3.5-1.1-6.5-3.2-9.5-5-4.6-2.7-9.5-5-14-7.8-3.5-2.2-9.3-3.1-13.4-4.7-1-0.4-3-1-3.6-1.7 0.2-0.5 2-2.5 2.5-2.7 0.9-0.3 1.8 0 2.8-0.3 1.1-0.3 4.7-0.3 5.9 0 1.3 0 2.6 0.1 3.9 0.1 0.9 0 2.6 0.4 3.6 0.1 0.6-0.2 1.5 0 2.1-0.2 1.8-0.5 3.9-0.5 5.6-1.1 1.4-0.5 3-0.7 4.4-1.3 4-1.6 7.7-3.5 9.8-7.1 0.5-0.9 1-1.9 1.4-3 0.3-0.7 0.1-1.3 0.3-2.1 0.2-0.6 0.3-1.8 0.1-2.4v-1.4c-0.4-1.5-0.5-3.2-1-4.6-0.6-1.9-0.8-4-1.5-5.9-0.2-0.7-0.1-1.6-0.6-2-0.7-0.3-2.8 0.6-3.4 0.8-3.2 1-6 2.1-8.7 3.5-4.7 2.3-8.9 5-13 7.8-0.3 0.3-0.6 0.6-1 0.9-2 1.3-3.6 3.2-5.6 4.6-1.9 1.4-4 2.8-6.2 3.7-1.1 0.5-2.3 0.7-3.5 1.1-0.5 0.2-1.5 0-1.8-0.1-0.5 0-0.9-0.1-1.4-0.1-1-0.4-2.2-0.7-3.1-1.1-6-2.3-10.1-6.3-14.6-10-1.2-1-2.3-2.6-3-4.1-0.2-0.3-0.7-1.3-0.6-1.7l0.6-0.6c0.3-0.8 1.4-1.4 2.1-1.9 1.6-1.3 3.2-2.2 5.1-3.2 7.3-3.9 17.5-4.7 25.4-8 2.5-1 4.9-2.5 7.1-3.7 0.8-0.4 1.6-0.7 2.3-1.2 1.1-0.9 2.4-1.4 3.7-2.2 0.4-0.3 0.8-0.7 1.3-0.8 4.4-1.7 9.4-3 13.2-5.4 1.5-0.9-0.1-4.6 0.5-6.4 0.4-1.5 0.6-2.1 1.4-3.2 0.2-0.3 0.7-0.6 1-0.8 0.6-0.4 1.2-1.1 1.9-1.5 1.6-0.9 3.2-1.8 4.7-2.7 1.1-1 2.1-2 3.2-3 1.2-0.8 2.1-1.9 3.1-2.9 1.6-1.5 3-3 4.5-4.6 0.6-0.7 1.4-1.4 2-2.2 0.9-1.2 2.2-3 3.5-3.8 2.5-1.6 6.8-5.6 6.8-9.6-2.3-0.5-5.7 0.2-7.4 0.8-0.5 0.1-0.9 0.2-1.4 0.3-1.8 0.7-3.7 1.3-5.5 2.1-2.6 1.1-5.2 2.8-7.9 3.8-9.1 3.6-17.5 7.8-25.5 12.5-2.4 1.4-4.6 2.8-6.9 4.1-0.8 0.5-1.7 0.9-2.4 1.5-2.9 2.4-6.2 4.3-9.2 6.5-2.7 1.9-5 4.2-7.7 6.1-2.2 1.5-3.4 3.9-4.9 6.2-1.4 2.2-4.2 4.5-6.5 5.9-0.4 0.2-0.9 0.4-1.3 0.6-1 0.6-2.9 1.7-4.2 2-0.7-2.1-5.2-2.6-7.3-3.5-3.2-1.3-5.4-4.1-8.1-5.9-0.8-0.7-1.5-1.4-2.3-2.1-0.5-0.3-3.2-2.7-3.3-3.1-0.1-0.2-0.1-0.8-0.1-0.9-0.1-0.6 0-1.5 0.1-1.9 0.2-0.8 0.1-1.4 0.3-2.1 0.5-1.5 1.3-2.7 2.1-3.8 2.8-4.1 9.8-7.1 14.8-9.1 1.6-0.6 3.1-1.2 4.5-2 3.7-2.3 7.6-4.2 11.4-6.5 3.5-2.2 7.3-4.3 10.9-6.3 0.8-0.4 1.6-0.7 2.3-1.2 8.4-5.2 17.3-9.8 25.8-14.9 0.5-0.2 1-0.4 1.5-0.5 7.6-4.3 16.6-8 22-14.6-0.9-1.7-2.4-2.9-3.4-4.5-0.2-0.4-0.7-0.7-0.8-1.1-0.9-2.2-0.8-5-1.6-7.4-1.5-0.2-3.4-0.9-4.1-1.9 0-0.7-0.1-1.5-0.1-2.2 1.1-0.2 3.4-1 3.8-1.8 0.7-1.2-0.8-5.2-1.5-5.5-0.9-0.4-1.3 0.5-1.7 0.7-1.5 1-2.8 2.3-4.3 3.3-2.5 1.6-4.6 3.7-7 5.3-0.5 0.4-2.5 1.5-2.7 2-0.3 0.5 0 1.2-0.2 1.8-0.3 1-0.4 2.3-0.6 3.3 0 0.5-0.1 1-0.1 1.5-0.4 1-1 2.1-1.5 3.1-0.7 1.5-1.1 3-1.9 4.4-1 0-2.6 0.7-3.3 0.4-1.5-0.5-2.9-1.5-4.1-2.3-0.7-0.4-3.5-2.4-4.8-1.9-5 1.8-6.5 7.7-8.3 12.8-0.7 2-1 4.1-1.9 5.9-0.5 0.9-1.3 1.9-2.2 2.4-0.4 0.2-1.2 0.2-1.5 0.5-0.3-0.1-0.4-0.3-0.6-0.5-0.7-0.5-1.3-1.1-2-1.5-0.3-0.3-0.6-0.6-1-0.9-1.3-0.8-2.3-2-3.5-2.9-0.5-0.3-1.1-0.7-1.4-1.1-0.8-1.2-1-2.8-1.5-4.3-0.2-0.5-0.1-2.8 0-3.3v-1.7c0.4-1.3 0.3-4.1-0.1-5.3-0.3-1-0.5-2.2-0.8-3.2-1.9-5.2-4.2-9.8-7-14.1-1.3-2.1-2.6-4.2-4.1-6.1-0.5-0.7-1.4-1.4-1.9-2.1-0.7-1 0.1-2.8 0.8-3.1 0.9-0.4 5.9-0.8 7-0.4 0.7 0 1.3 0.1 2 0.1 1.8 0.5 3.4 0.8 5 1.5 2.3 1 4.4 2.8 6.1 4.5 0.3 0.2 0.5 0.4 0.8 0.6 0.7 0.8 1.2 1.6 2 2.2 1.1 0.9 4 4.6 5.4 4.7 0.7-0.8 1.3-1.4 1.9-2.4 0.2-0.8 0.3-1.5 0.5-2.3V386c0.2-0.6 0.1-3.3-0.1-4.1v-2.2c-0.2-0.7 0.1-1.8-0.1-2.7-0.2-1.3-0.3-2.7-0.5-4-1-5.8-2.7-11.3-4.8-16.1-1.4-3.3-2.5-6.6-3.9-9.8-0.5-1.1-1.3-2.3-1.9-3.3-1.8-3.2-3.3-6.4-5.1-9.5 0.6 0 1.3 0 1.7-0.1v-0.7c5.6-0.1 8 2.8 11.5 4.9 1.6 0.9 3.4 1.4 5.2 2.2 1.9 0.9 3.5 2.1 5.3 3.2 1 0.6 1.7 1.6 2.7 2.2 1.1 0.7 1.9 1.7 2.8 2.5 1.6 1.4 3 2.8 4.7 4 1.5 1.1 3 2.4 4.8 3.1 0.3 0 0.5 0.1 0.8 0.1 1.1 0.4 2.3 0.8 3.4 1.3 0.5 0.2 0.8 0.1 1.3 0.2 1 0.3 4.5 0.8 5.8 0.3 1-0.3 2.1-0.6 3-1.1 4.8-2.9 6-8.1 8.4-13.3l0.3-1.2c0.4-1.1 0.8-2.3 1.3-3.4 0.1-0.3 0.1-0.6 0.2-0.9 1.5-3 2.7-6.1 4-9.2 1-2.3 2.4-4.7 3.3-7.1 0.3-0.9 0.1-4.1 0.1-5.3v-1.3c0.2-0.7 0-1.8 0.2-2.6 0-1.7 0.3-2.7 0.7-3.6z m40.3 37.5c-0.5 0.4-2.6 0.8-3.4 1.1-1.8 0.7-3.9 1.4-5.7 2.1l-2.1 0.6c-2.1 0.9-4.4 1.6-6.5 2.5-5.1 2.2-10.1 4.6-14.4 7.6-2.2 1.6-7.4 5.8-5.8 10.2 0.4 1.1 0.6 2.1 1.1 3.2 1.1 2.8 3 5.3 4.6 7.6 1 1.5 3.7 2 4.8 3.4 0.4 0.5 0.7 2.6 1 3.3 0.4 1.2 0.8 2.5 1.3 3.7 0.3 0.7 0.8 1.6 0.9 2.2 1.7 0 3.2 0.1 4.5-0.5 7-3.4 10.4-15.3 13.5-23.1 0.6-1.4 1.9-2.6 2.6-3.9 2.1-3.6 4.6-7 6.7-10.7 1.6-3 1.4-9.3-3.1-9.3z m-76.8 23.2c-0.6 2.2 1 6.4 1.6 7.9 0.3 0.8 0.4 1.6 0.8 2.2 1.6-1 3-2.6 4-4.1 0.3-0.4 1.3-1.3 1.1-1.9-0.3-0.6-1.2-0.9-1.8-1.3-1.7-1.2-3.2-2.4-5.7-2.8z m35.8 23.2c-0.5 0.8-2.6 3.2-1.9 4.7 0.4 0.1 0.5 0.5 0.8 0.7 0.6 0.3 1.2 0.6 1.8 0.8 1.2 0.4 3.6-0.6 4-1.2 0.2-0.3 0.2-0.9 0.3-1.4 0.1-0.3 0.5-0.8 0.3-1.2-0.3-0.6-0.7-1.3-1-1.9-1.4-0.1-2.5-0.5-4.3-0.5zM569.6 456.3c2.1 0 3.6-0.6 5.2-1.2 1.1-0.4 2.4-0.2 3.5-0.6 1.1-0.1 2.1-0.2 3.2-0.3 2-0.6 4.3-0.4 6.2-1.1 4.1-1.3 7.9-3.2 11.7-4.8 4.6-1.9 8.9-4.1 13-6.5 1.2-0.7 2.3-1.3 3.5-1.9 1.4-0.7 2.7-1.8 4.1-2.5 0.6-0.3 2.9-1.5 3.1-1.9 0.1-0.7 0.3-1.4 0.4-2 0.5-1.5 0.7-3.3 1.2-4.7 0.1-0.6 0.2-1.3 0.3-1.9 0.5-1.3 0.4-2.8 0.8-4.3 0.9-3 1-6.9 1.9-10 0.3-1.1 0.2-2.2 0.5-3.2 0-0.4 0.1-0.8 0.1-1.3 0.2-0.8 0.3-1.9 0.5-2.7 0-0.4 0.1-0.8 0.1-1.3 0.5-1.6 0.5-3.7 1-5.3 0-0.4 0.1-0.8 0.1-1.2 0.6-2.1 0.5-4.5 1.2-6.5 0-0.4 0.1-0.8 0.1-1.1 0.2-0.9 0.3-1.8 0.5-2.6 0-0.4 0.1-0.8 0.1-1.2 0.3-0.7 0.1-1.8 0.4-2.5 0.4-1.1 0.6-5.9 0.2-7.3-0.1-0.4 0-1.1-0.1-1.4-0.3-1.2 0-2.6-0.3-3.6v-1c-0.4-1.4 0-3.4-0.4-4.9-0.2-0.7 0-2.1 0.1-2.7 0-0.8 0.1-1.5 0.1-2.3 0.7-2.1 0.7-4.4 2.3-5.6 1.8 0 3.4 0.4 4.7 0.8 1.4 0.5 2.5 0.7 3.8 1.2 2.1 0.8 4 2 5.9 3.1 2.9 1.6 5.2 3.5 7.9 5.2 0.8 0.6 1.5 1.3 2.3 1.9l0.9 0.9c0.7 0.4 3.5 3.3 3.7 4.1 0.1 0.3-0.4 3-0.5 3.4l-0.3 2.1c-0.7 1.7-1 3.9-1.5 5.5-2.3 7.3-4.9 13.7-7.5 20.5-0.8 2-1.2 4-2 6-0.8 1.9-1.1 4.3-1.8 6.3-0.2 0.7 0 1.3-0.3 2-0.2 0.6-0.7 2.5-0.5 3.2 0.9-0.1 3-1.7 3.7-2.1 1.9-1.1 3.6-2.3 5.4-3.5 0.7-0.5 1.3-1.2 2-1.7 1-0.7 2.2-1.8 2.7-3 0.3-0.8-0.3-2-0.4-2.5-0.7-2.2-1.5-4.2-2.2-6.2-0.3-0.9-0.5-2.8 0.1-3.5 0.6-0.6 1.8-0.5 2.7-0.2 2 0.6 4.1 1 6.2 1.6 5.9 1.8 11.3 3.8 16.1 6.6 2.3 1.3 4.8 2.7 5.7 5.5 0.7 2.3-0.7 3.2-1.5 4.3-1.5 2.3-5 5.2-7.4 6.7-1.4 0.9-2.7 2.1-4.2 3-2.9 1.7-5.9 3.5-8.8 5.2-0.7 0.4-1.4 0.5-2.1 0.9-2.3 1.3-4.8 2.4-7.2 3.6-2.2 1.1-4.2 2.4-6.2 3.6-0.8 0.5-1.8 0.8-2.6 1.3-2.5 1.4-5.2 2.9-7.6 4.5 0 0.6-0.4 1.2-0.5 1.7-0.5 1.3-0.8 2.7-1.3 3.9-1.1 3.1-1.8 6.4-3 9.4-0.5 1.4-0.7 2.7-1.1 4.1-1.6 4.5-2.8 9.5-4.6 13.8-1.1 2.5-2.6 4.9-4 7.1-6.6 10.5-15.8 18.8-27.7 23.9-2 0.9-4.3 1.5-6.4 2.2-1.4 0.5-3 0.6-4.4 1.1-1.7 0.2-3.4 0.5-5.2 0.7H584c-0.5 0.2-1.4 0-2.1 0.1-0.9 0.2-2.9 0.2-3.8 0h-1.9c-0.9-0.3-2.2-0.2-3.2-0.4-1.8-0.4-3.8-0.1-5.5-0.5-1-0.3-2 0-3-0.3-2.1-0.6-4.2-1-6-1.8-0.6-0.3-1.2-0.6-1.7-0.8v-1.5c0.5-0.9 0.7-1.8 1.2-2.6 0.7 0 1.4-0.4 2-0.6 1.1-0.5 2.3-0.7 3.4-1.1 0.7-0.3 1.4-0.2 2.1-0.5 2.6-1 5.5-1.5 8-2.4 1-0.4 1.9-0.4 2.9-0.7 3-1.1 6.3-1.7 9.4-3 2.3-0.9 4.8-1.8 7.1-2.7 7.8-3.3 14.1-8.1 18.6-14.7 2.3-3.3 3.4-7.3 4.8-11.7 0.4-1.5 0.4-3.2 0.8-4.6 0.2-0.6-0.1-1.4 0.2-1.9-0.3-0.4-2.9 1.2-3.4 1.6-3.3 2.3-7 4.1-10 6.7-0.9 0.8-2 1.4-3 2.1-3.7 2.5-7.1 4.7-11.9 6.2-3.2 1-5.7 1.5-9 0.2-1.6-0.6-2.9-2.1-3.9-3.4-2.3-2.9-3.4-6.5-4.7-10.4-0.4-1.2-0.4-2.4-0.7-3.7-0.6-1.3-1-2.9-1.1-4.4zM712.2 485c-0.1 1.9-1.3 3.6-2.5 4.5-0.3 0.2-0.6 0.7-0.9 0.9-3.4 2-7.2 3.9-10.7 6-1.3 0.8-2.4 2.1-3.7 2.9-3.1 1.9-5.8 4.6-9.4 6-1.8 0.7-3.6 1.2-5.6 1.8-2.4 0.8-7.4-0.1-9.1-0.8-3.8-1.5-5.1-5-7.3-8.1-2.6-3.7-5.6-7.1-8-11-1-1.5-2.2-3-3.2-4.6-1.7-2.7-3.2-5.7-4.6-8.7-1-2-1.4-4.3-2.1-6.6-1-3.4 0.2-9.1 2-10.5h3.5c0.2 1 1.2 2.1 1.7 2.9 1.3 2.1 2.7 4 4 6.1 0.3 0.4 0.8 0.8 1.1 1.3 2.6 3.7 6.4 7.6 10.1 10 2.6 1.7 4.7 3.6 8 4.6 2.5 0.8 5.3 1.1 8.7 1.1 0.9 0 2 0.1 2.6-0.1 1.1 0 2.1-0.1 3.2-0.1 1-0.3 2.4 0.1 3.5-0.2 0.6-0.2 4.4-0.3 5.2-0.1 1.5 0.4 3.2 0.1 4.6 0.6 1.2 0.4 2.8 0.6 4.1 1 0.3 0 0.6 0.1 1 0.1 0.9 0.4 2.7 0.9 3.8 1zM420.7 323.1c8.7-0.1 13.5 7 19 10.3 2.7 1.6 6 3.6 7.3 6.6 1 2.3 0.1 6.9 0.8 9.5 0.3 1 0 1.9 0.7 2.4 1.5 1.1 4.3-1.2 4.9-1.9 1.3-1.3 2.7-3.4 4.2-4.3 1.1-0.6 2.5-0.5 3.8-0.9 1.5-0.5 3.3-0.9 4.9-1.4 0.8-0.2 1.6-0.2 2.3-0.4h1.3c0.5-0.1 1.4 0 1.9 0.1 0.5 0.2 0.9 0.1 1.4 0.3 1.4 0.7 2.2 1.9 3.1 3.1 0.4 0.5 1 1.1 1.2 1.8 0.3 0.8 0.5 2.2 0.2 3.3-0.8 2.9-2.1 5.1-3.6 7.3-0.9 1.3-2.1 2.4-3 3.7-0.7 1.1-1.9 1.8-2.6 2.9-2.1 3.1-4.9 5.7-6.9 9-0.5 0.6-1 1.2-1.6 1.7-0.8 1.2-1.9 2.4-3 3.3-0.3 0.3-0.5 0.6-0.8 0.8-0.8 0.5-1.4 1.3-2.2 1.8-0.7 0.5-1.4 1-2.2 1.6-0.8 0.7-1.6 1.5-2.6 2.1-1.3 0.8-2.5 1.6-4 2.2-0.9 0.4-1.8 0.3-2.7 0.6-2.6 0.8-5.2 2.1-6.5 4.2-0.5 0.8-1.8 3.1-1.4 4.4 1.1 0.2 2.3-0.8 3-1.3 1.8-1.2 4.4-2.6 6.4-3.4 8.2-3.1 15.4-7.3 23.4-10.5 1.4-0.5 2.8-0.8 4.3-1.2 0.4 0 0.8-0.1 1.2-0.1 1.4-0.4 3.2-0.3 4.6-0.8 1.9-0.7 3.3-1.8 5.2-2.3 3.1-0.8 5 4.1 5.4 6.3 0 0.2-0.1 0.3-0.1 0.5-0.2 2-1.5 2-3 2.6-3.9 1.5-7.8 2.9-11.7 4.4-9.5 3.7-18.6 7.7-27.1 12.3-5.1 2.7-10.3 5.4-13.6 9.8-2.4 3.1-5.4 6.5-3.9 11.9 0.3 0.9 0 3.7 0.5 4.2 2.6-0.7 5.4-1.3 7.7-2.4l1.2-0.3c1.3-0.5 2.5-0.9 3.8-1.4 0.7-0.3 1.5-0.8 2.2-1.3 0.7-0.5 1.1-1.4 2-1.7 0.5-0.2 1.5 0 1.8 0.1 1.6 0.5 3 0.6 3.5 2 0.2 0.5 0 1.6-0.1 1.9 0 0.6-0.1 1.2-0.1 1.9-0.3 1.1-0.4 2.4-0.8 3.4-0.4 1.1-2.6 2.3-3.6 3-2.3 1.5-4.8 2.7-7.3 4-0.9 0.5-1.8 1.2-2.7 1.5-1.9 0.8-5.7 0.8-6.8 2.3 0 2.4-0.2 8 1.3 8.7 0.9 0.4 2.6-0.9 3.3-1.1 0.9-0.3 1.3 0.8 1.7 1.1 1.1 0.7 1.8 1.2 2.3 2.6 0.1 0.4 0.1 1 0.2 1.3 0.5 1.4-1.2 3.1-1.6 3.8-1.2 1.8-3.2 3.3-5.1 4.5-1 0.6-2.7 1.1-3.1 2.3-0.4 1.1 0.7 3 1.1 3.6 1.2 1.8 4.5 4.3 7.9 3.2 1.5-0.5 3.5-2.1 4.9-3 3-1.8 6.3-3.1 9.6-4.6 1.4-0.6 2.8-0.9 4.2-1.6 0.6-0.3 1.3-0.6 1.9-1 1-0.4 2.6-0.9 3.1-1.8 0.7-1.2-1.9-4.6-2.4-5.5-2.3-3.7-4.9-7.1-7.1-10.9-0.6-1-1.5-1.8-2-3v-0.7c-0.1-0.3-0.4-0.4-0.3-0.8 0.1-0.1 0.2-0.1 0.3-0.2 0.6 0.5 1.3 1 2 1.4 1.4 0.7 3.2 0.9 4.6 1.5 1 0.4 2 0.3 3 0.7 3.1 1.2 6.4 2.3 9.6 3.5 1.2 0.5 2.5 0.6 3.6 1.1 2.3 0.9 5 0.8 7.4 1.5 1.7 0 3.5-0.1 5.2-0.1 0.7 0.2 1.6 0.2 2.2 0.4 1.5 0.6 2.8 2 3.6 3.3 0.4 0.6 1.4 2.2 1 3.5-0.7 2.3-2.2 5.6-3.9 6.8-2.1 1.4-4.6 2.4-6.8 3.8-1.8 1.2-3.6 2.8-5.5 3.9-8.1 4.5-16.9 8.5-25.8 11.9-1.8 0.7-3.6 1.2-5.4 2-0.8 0.3-1.5 0.3-2.3 0.5-1.9 0.6-4 1-5.7 1.8-1.1 0.6-3.3 1.3-3.8 2.4-0.5 1-0.3 6.2 0 7.5 0.1 1.1 0.1 2.3 0.2 3.4 0.8 2.9 0.4 6.5 1.2 9.3l0.3 3.3c0.2 0.9 0.2 2 0.4 2.9v1c0.2 0.5 0.3 2.1 0.1 2.8-0.4 1.5-0.5 2.9-1.1 4.2-1.8 4.4-4.4 8.6-7.1 12.3-0.4 0.5-0.6 1.1-0.9 1.6-1.2 2-2.9 4-4.5 5.7-0.7 0.7-2.3 1.7-4.1 1.2-3.1-0.8-5.2-3.1-6.9-5.3-3.1-3.9-6.1-7.6-8.1-12.7-0.7-1.8-1.5-6.3-0.6-8.7 0.5-1.3 1-2.4 1.7-3.5s1.7-2.3 2.2-3.7c0.4-1 0.3-2.5 0.7-3.5 0.4-1 1.7-3.4 1-4.8-0.6-1.1-3.2-1.5-4.9-1-3.2 1-4.9 3.3-8.1 4.5-0.6 0.1-1.3 0.2-1.9 0.3-2.2 0.2-4.7 0-5.5-1.3-0.5-0.7-0.8-1.4-1.3-2.1-0.5-0.7-2-1.7-2.7-2.2-1.1-0.7-2.3-1.3-3.4-2-0.4-0.2-1.2-0.4-1.4-0.8-0.2-0.4 0.4-1.9 0.2-2.8-0.1-0.4-0.5-1.6-0.5-1.9 0.1-1.1 1.3-3.1 2-3.6 0.8-0.5 2.1-0.6 3.3-0.6h1.4c0.7-0.2 1.7 0 2.4-0.2 1.3-0.4 2.9-0.2 4.2-0.6 1.1-0.4 2.3-0.4 3.4-0.8 3.7-1.4 7.5-2.8 10.3-5.1 1.9-1.6 3.3-4.1 4.4-6.5 0.6-1.3 2.7-5.5 1.1-7-0.8-0.7-2 0.2-3-0.1-2.2-0.7-4.1-3.5-4.8-5.8-0.1-0.5 0-1.6 0.1-2 1-3.4 3.9-3.1 6.5-4.7 0.2-0.2 0.6-1.2 0.7-1.5 0.4-1.3-0.3-5.1-0.6-6-0.2-0.6-0.1-1.7-0.5-2.1-0.2-0.1-0.5-0.1-0.7-0.2-0.7-0.3-1.6-0.7-2.4-1-1.3-0.4-2.6-0.3-3.5-1-0.6-0.4-1.4-3.7-0.8-4.8 0.7-1.2 1.9-1.8 3-2.5 1-0.7 2.2-1.3 3.4-1.8 0-2.9-0.4-5.3-1.1-7.5 0-0.5-0.1-1-0.1-1.6-0.2-0.8-0.2-1.9-0.5-2.6-2.8-0.6-6-0.3-8.7-1-1.4-0.4-3.1 0-4.2-0.7-0.3-0.5-0.6-0.9-0.9-1.4-1.4 0-3.4 0.4-4.7 0.8-2.1 0.6-4 0.4-5.9 1.1-2.6 0.9-4.9 3.2-6.2 5.4-0.9 1.5-0.9 3.6-1.4 5.6 0 0.5-0.1 1-0.1 1.5-0.9 3.2-0.6 7.4-0.6 11.4 0 5.6-0.1 11.3-0.1 16.9 0 0.9-0.1 2.2 0.1 2.9 0.2 0.6-0.1 1.5 0.1 2 0.1 0.5 0 1.1 0.1 1.4 0 0.7 0.1 1.3 0.1 2 0.1 0.4 0.5 3.2 0.3 3.7-0.8 2.4-1.6 4.4-2.3 6.9-0.8 2.6-0.8 5.5-1.7 8-1 2.7-2.1 5.4-3.1 8-0.7 1.9-1.2 3.9-1.9 5.8-0.3 0.8-0.2 1.6-0.5 2.4-0.6 1.8-0.7 4-1.5 5.6-0.4 0.9-0.9 1.6-1.4 2.3-0.7 1.1-2.8 1.6-4.2 2.1-1.5 0.6-3.8 1.1-5.5 0.4-2.8-1.1-2.8-4.3-3.7-7.3-0.2-0.7 0-1.6-0.2-2.2v-1.4c-0.2-1 0-2.1-0.3-3.1-0.7-2.1-1.3-4.1-2-6.3-0.4-1.1 0.7-4 1.1-4.7 0.5-1.2 1.1-2.9 1.9-3.8 0.4-0.4 1-0.5 1.4-0.8 0.5-0.5 0.8-1.8 1.1-2.5 0.1-0.5 0.2-1.1 0.3-1.6 0.8-2.4 0.8-5.3 1.6-7.8 0.3-1 0.2-2.2 0.5-3.1v-0.6c0.7-1.6 0.7-4.1 1.2-5.8 0-0.3 0.1-0.6 0.1-0.9 0.3-0.9 0.5-2.2 0.8-3.2v-0.5c0.4-1 0.3-2.2 0.7-3.3 0.8-2.2 1-4.6 1.7-7 0.5-1.9 0.6-4.2 1.2-6 0.3-0.9 0.1-2.1 0.4-3 0.1-1 0.1-1.9 0.2-2.9 0.2-0.7 0.5-4.2 0.2-5-0.6-1.9-0.6-4.2-1.1-6-0.9-3.4-1.8-6.7-3-9.7-0.4-1.1-0.8-2.5-1.5-3.5-1.5-2-2.5-4.5-3.5-7-0.2-0.6-0.1-1-0.3-1.6-0.2-0.7-0.6-3-0.3-4 0.2-0.7 0.2-1.6 0.4-2.4 0.5-1.7 1.2-3.3 2-4.7 1-1.6 2.9-2.6 3.8-4.3 0.6-1 0.7-2.1 1.1-3.3 1-2.7 1.7-5.9 2.4-8.7 0.2-1.1 0.3-2.1 0.5-3.2 0.3-1.2-0.2-3.2-0.4-3.9-1.3-3.6-4-4.9-5.8-7.7-1.4-2.2-1.1-5.2-2.1-7.9-1.4-3.7-3.8-5.1-6.3-7.7-1.2-1.2-3.5-2.7-4.2-4.3-0.6-1.2-0.4-2.6 0.6-3.3 3.5-2.2 10.3 1.1 13.3 2.1 2 0.6 4.2 1 6.1 1.7 0.8 0.3 1.5 0.2 2.3 0.5 2 0.8 4 1.9 6 2.7 0.9 0.3 1.9 0.6 2.8 0.8 1.7 0.7 3.5 1.4 5 2.3 1 0.7 2 1.4 3 2 0.3 0.3 0.6 0.6 1 0.9 1.8 1.2 2.9 3.2 3.9 5.2 0.1 0.5 0.2 0.9 0.3 1.4 0.2 0.6 0.4 2 0.2 2.9-0.7 2.6-1.3 5.2-3.3 6.4-1.2 0.7-2.5 1.1-4 1.6s-3.2 0.4-4.7 0.8c-3.2 1-6 3.2-8.1 5.5-2.4 2.6-4.9 7.1-6 11-0.2 0.7 0.1 1.4 0.1 2.1 0 2.5-0.4 5.5 0.8 7.1 0.9 1.3 4 2.1 5.8 2.7 2.7 0.9 4.9 2.3 7.6 3.2 1.5 0.5 3.7 0.3 5.2 0.9 1.4 0.5 2.9 1.5 3.5 2.8 0.4 0.7 0.6 2.4 1.3 2.8 1.5 0.9 3.5 1 5.1 1.9 0.5 0.3 0.7 0.8 1.1 1.1 0.6-0.2 1.1-0.4 1.7-0.6 1.2-0.4 2.5-0.5 3.7-0.8 0.6-0.1 1.3-0.2 1.9-0.3 2.2-0.8 4.8-1 6.8-1.8 1.4-0.5 3.2-0.7 3.9-1.9 0.4-0.6 0.1-1.8 0.2-2.6 0.1-1.4-0.1-3-0.1-4.6 0-2.2-0.6-4.5-0.5-6.9 0-2.3 1-5.6 0.1-7.8-0.2-0.5-0.6-1-0.8-1.5-0.5-0.8-0.9-1.5-1.7-2-1.1 0-3.4 2.2-4.5 2.7-0.6 0.3-1.5 0.3-1.9-0.1-1.4-1.3 0.5-3.6 1.2-4.4 0.8-0.9 1.9-1.8 2.5-2.8 0.7-1.1 0.8-2.9 1.6-3.9 0.4-0.5 1.1-0.6 1.7-1 1-0.7 1.8-1.7 2.3-2.9 1-2.3 0.7-6 0.7-9.2 0-0.8-0.3-2.7 0-3.5 0.8-2.5 1.2-5.1 1.8-7.6v-0.8c0.5-1.8-0.1-4.6 0.4-6.3v-1.9c0.2-1.4 0.3-2.9 0.5-4.3 0.4-1 0.3-2.3 0.6-3.4 0.8-2.2 1.2-4.5 2.3-6.4 0.6-1.1 1.7-2.3 2.8-3 1.5 0 2-0.2 2.5-0.3z m34.1 36c-0.8 0.3-1.6 0.7-2.4 1-2.7 1.4-7.8 4.3-6.5 9.1 0.3 1.1 0.4 2.2 1.1 2.9 0.7-0.1 2.4-1.4 2.7-2 0.3-0.8 0.2-1.7 0.5-2.4s1.1-1.1 1.6-1.6c1.2-1.2 2.3-2.5 3-4.2 0.3-0.7 0.6-1.8 0.2-2.7-0.1-0.1-0.1-0.1-0.2-0.1z m-84.3 77.8c-0.5 1.1-1.4 2.1-1.9 3.2-1 1.9-1.9 3.9-2.7 6-0.8 2-1.1 4.4-1.7 6.5-0.3 1.1-0.3 2.2-0.6 3.3-0.4 1-0.3 2.2-0.6 3.1-0.3 1.7-0.6 3.5-0.9 5.2-0.2 0.7 0.1 2.1 0.6 2.2l1.2-1.5c0.7-1.5 0.9-3.2 1.6-4.9 1.3-3.3 1.9-7 3.1-10.3 0.5-1.3 0.5-2.7 0.9-4 0.4-1.2 0.6-2.7 1-3.9 0-0.7 0.1-1.4 0.1-2.1 0.2-0.6 0.5-1.7 0.3-2.6-0.2-0.2-0.3-0.2-0.4-0.2zM225.1 318.1c1.4 0 2.5 0.3 3.4 0.8 0.6 0.3 1.2 0.4 1.8 0.7 1.5 0.9 2 3.2 1.2 5.4-1.6 4.6-3.5 10.4-6.8 13.4-1.8 1.7-4.6 2.6-6.7 4-2 2.1-4.1 4.2-6.1 6.2-0.8 0.5-1.2 1.3-1.9 1.8-1.2 0.8-2.3 2-3.4 3-0.4 0.4-0.8 0.8-1.1 1.2-2.5 1.8-4.3 4.3-6.8 6.2-0.8 0.8-1.6 1.7-2.4 2.5-1.2 0.8-2.1 1.9-3.3 2.7-2.1 1.3-4 2.8-6.1 4-3 1.7-6.1 2.9-9.5 4.2-0.9 0.3-2.1 0.4-3.2 0.4-0.6 0-1.5-0.3-1.7-0.1l1.1 1.1c1.1 1.7 2.7 3.1 3.5 5.1 0.3 0.7 0 1.6 0.3 2.4 0.6 1.6 1.1 2.5 2.8 3 1.3 0.4 3.6-0.3 4.3-0.7 0.4-0.3 0.8-0.7 1.2-1 0.9-0.5 1.7-0.7 3.1-0.8 0.4 0 0.8-0.1 1.2 0h1.5c1.6 0 3.8 0.3 5.2-0.1h1.4c1.2-0.1 2.4-0.1 3.6-0.2 0.9-0.2 1.8-0.1 2.7-0.3 2.1-0.5 4.3-0.8 6.1-1.5 1.1-0.4 4.9-2.2 6-0.7 0.6 0.9 0.3 3 0 4-0.2 0.6-0.2 1.4-0.5 2.1-1 2.3-2.9 3.7-4.5 5.4-3.1 3.2-7.9 5.4-11.9 7.8-4.3 2.6-8.4 5.4-12.5 8.2-1.3 0.9-2.6 1.8-3.9 2.8-0.3 0.3-0.6 0.5-0.8 0.8-0.8 0.5-1.8 1.2-2.4 2 0.1 1.4 1.6 3 1.8 4.3 0.3 1.4 1.3 2.9 1.9 4.2 1 2.4 2 4.6 3.1 6.9 1 2.2 1.8 4 2.7 6.2 0.4 0.8 1 1.7 1.4 2.5 0.4 0.9 0.6 1.7 1.1 2.4 0.7 1 1.1 2.2 1.8 3.3 0.6 1.1 1.4 2.1 2 3.3 0.4 0.7 1 1.3 1.4 1.9 1.6 2.2 3.1 4.4 4.6 6.5 3.3 4.5 6.7 9 9.9 13.6 1.6 2.2 3.6 4.3 5.2 6.5 1.9 2.8 4 5.4 6 8.1 0.9 1.3 2.2 2.5 3.1 3.9 0.9 1.3 2.1 2.3 3 3.6 0.6 0.9 1.4 1.9 2.3 2.4 1.2 0.8 6.9 0.6 9 0.6 0.9 0 2-0.1 2.8-0.1 1 0 2.2 0.1 3-0.1 0.7-0.2 1.7 0 2.2-0.1 1-0.3 2.2 0.1 3.1-0.2h1.1c1-0.3 2.4-0.1 3.5-0.4h1.1c1.7-0.5 3.7-0.1 5.4-0.5h1.6c2.5-0.6 5.5-0.3 6.4 1.5 0.2 0.4 0.1 0.7 0.3 1.2 0.2 0.5 0.1 1.2-0.1 1.8-0.2 0.6-0.6 1.2-1 1.6-1.3 1.9-5.7 3.1-8.1 4-3.7 1.3-7.6 2.8-11.2 4.3-2.4 1-4.8 1.6-7.2 2.6-1.1 0.4-2.3 0.9-3.4 1.4-0.5 0.2-1 0.2-1.5 0.5-3.1 1.9-6.2 3.9-9.4 5.8-2.5 1.5-5.4 2.1-8.4 3.2-0.5 0-1.1 0.1-1.6 0.1-2.3 0.7-5.4-0.6-6.7-1.4-5.5-3.2-10-8.9-13.4-14.1-1.4-2.1-2.9-4.3-4.2-6.5-1-1.6-1.7-3.4-2.7-5.1-0.8-1.4-1.7-3-2.3-4.5-0.8-2-1.6-4.1-2.5-6-0.1-0.3-0.1-0.6-0.2-0.9-0.4-1-0.8-2.3-1.3-3.3-0.3-0.7-0.2-1.4-0.5-2.1-0.6-1.6-0.8-3.4-1.5-5.1-1.8-4.8-2.4-10.4-4.1-15.4-0.6-1.7-0.7-3.5-1.3-5.1l-0.9-4.2c-0.4-1.1-0.4-2.4-0.8-3.5s-0.6-2.5-1-3.5c0-0.3-0.1-0.6-0.1-0.9-1-2.8-1.3-6.2-2.2-9.1-0.2-0.6-0.1-1.1-0.3-1.8-0.5-1.4-0.7-3.2-1.2-4.7-0.2-0.8-0.2-1.8-0.5-2.4h-0.1c0 1.2-0.6 3.4-1 4.5-0.5 1.7-0.5 3.5-1.1 5.2-0.2 1-0.3 2-0.5 3-0.7 2.1-0.7 4.6-1.4 6.8 0 0.4-0.1 0.8-0.1 1.2-0.2 0.7-0.3 1.7-0.5 2.4l-0.3 2.4c-0.9 2.7-0.7 5.9-1.6 8.5-0.3 0.8-0.3 2-0.5 2.8v0.6c-0.4 1-0.3 2.3-0.6 3.4-0.6 1.7-0.7 3.8-1.2 5.6-0.1 0.7-0.2 1.4-0.3 2-0.6 1.6-0.6 3.6-1.2 5.2-0.1 0.6-0.2 1.3-0.3 1.9-0.6 1.7-0.7 3.6-1.3 5.4-0.6 1.8-0.8 3.7-1.5 5.5-1.5 4-2.4 8-4.4 11.5-3.4 6-7.5 11.1-11.9 16.2-2.1 2.5-4.6 4.7-6.7 7.3-0.4 0.4-0.8 0.7-1.2 1.1-1.4 1.7-3 3.5-4.8 4.8-1 0.8-1.8 1.9-2.9 2.7-1.7 1.1-3.2 2.4-5 3.5-1.4 0.8-3.1 1.4-4.7 2-0.7 0.2-1.4 0.3-2.1 0.5h-0.6c0 0.1-0.1 0.1-0.1 0.2-0.7 0.1-1.5 0.1-2.2 0.2-1.4 0.3-3.3 0.2-4.9 0.2-0.7 0-1.7 0.1-2.3-0.1h-1.4c-0.6-0.2-1.6-0.2-2.2-0.3h-0.6c-0.1-0.1-0.1-0.2-0.2-0.3-0.4 0-0.9-0.1-1.3-0.1-1.6-0.6-3.5-0.5-5.2-1.1-1.3-0.5-2.8-0.7-4.1-1.3-2.1-0.9-4-1.8-5.8-3-1.5-0.9-4.1-4.5-1.5-6.1 1.7-1 3.4-1 5.5-1.7h0.8c0.8-0.2 2-0.2 2.8-0.4h1c1-0.3 2.3-0.1 3.2-0.4h1c0.8-0.2 1.8-0.2 2.5-0.4 0.4 0 0.8-0.1 1.3-0.1 3-1 6.6-1.1 9.5-2.2 0.7-0.3 1.4-0.2 2.2-0.5 1.9-0.8 3.8-1.4 5.6-2.3 1.5-0.8 2.8-1.8 4.2-2.7 1.4-0.9 3.8-3.2 4.7-4.6 0.2-0.2 0.5-0.4 0.7-0.6 1.1-1.4 2.2-2.8 3.2-4.2 2.8-4 4.7-8.7 6.8-13.5 1.6-3.8 2.9-7.9 4.6-11.7 0.8-1.7 1.1-3.4 1.8-5.2l0.3-1.2c0.8-1.7 1-3.6 1.7-5.4 2.3-6.5 3-14.9 2.3-23.4h-0.1-0.1c-0.4 1.2-1.7 2.6-2.3 3.7-1.8 2.9-3.7 5.6-5.5 8.3-4.8 7.4-10 14.7-17.8 19.2-1.8 1.1-3.9 1.7-6 2.5-1 0.4-2 0.3-3 0.6h-1.1c-3.2 0.9-7.2-1.3-8.9-2.3-8-4.9-12.6-10.5-16-20.1-1.3-3.6-2.3-10.3 0-13.6 2.3 1.3 4.8 2.2 7.4 3.2 1.1 0.4 2.1 0.3 3.3 0.7 1.2 0.4 4.1 0.6 5.4 0.1 1.8-0.6 3-1.6 4.5-2.4 2-1.1 3.9-2.4 5.9-3.6 4.7-2.7 9.1-5.8 13.9-8.4 2.3-1.3 4.5-3.1 6.8-4.4 3.8-2.2 7.2-4.8 10.8-7.2 1.2-0.8 3.4-2 3.9-3.4 0.3-0.8 0-1.6 0.3-2.4 0.3-0.7 0.1-1.6 0.4-2.4 0.6-1.8 0.4-4 1-5.8 0.3-0.9 0.1-2.2 0.3-3.2v-9.6c0.2-0.5 0-1.3 0.2-1.9 0.8-2.8 0.8-6.3 0.8-9.9 0-3.4-0.1-6.8-0.1-10 0-2.5 0-4.6 1.4-5.7 1.2-1 5.8-0.5 7.9-0.5v-0.1c-0.6-0.3-0.9-1.2-1.4-1.6l-3.6-2.4c-1.4-0.9-2.3-2.8-3.2-4.2-1.4-2.1-3.4-3.8-5.2-5.6-1.1-1.1-3.1-3.6-1.9-6 0.7-1.4 2.2-3.6 3.7-4.2 0.7-0.3 2.1-0.7 3.3-0.4 0.4 0.1 1.3 0.2 1.8 0.1 0.7-0.2 1.6 0 2.4-0.3 1.5-0.5 3.2-0.7 4.7-1.3 4.6-1.7 8.8-3.6 13.2-5.4 4.9-2 9.8-3.7 14.5-5.7 2.7-1.1 5.2-2.8 7.6-4.2 1.6-0.9 2.6-2.1 4.6-2.7 1.1-0.3 2.2-0.1 3.3-0.5 1.2-0.4 2.5-0.4 3.8-0.8 3.7-1 8.1-1.1 11.7-2.3 1.3-0.4 2.7-0.5 3.9-0.8 0 0.1 0.9 0.4 1.3 0.1z m-45.7 73.2c-0.4 0.3-1.1 0.2-1.4 0.5-0.3 0.4-0.4 0.9-0.6 1.4-0.3 0.9-0.9 1.8-1.3 2.7-0.3 0.8-0.3 1.5-0.5 2.4-0.2 0.6-0.5 2.5 0 3.1 1.8-1.2 3.4-2.8 5.3-3.9 0.4-0.4 0.9-0.7 1.3-1.1 0.7-0.4 2.2-1.2 2.6-1.8-0.1-1.8-2.9-3.3-5.4-3.3zM924.8 590.7h18.5c0 0.7-0.5 1.4-0.8 2-0.8 2-1.4 4-2.2 6-0.6 1.3-0.8 2.6-1.4 3.9-1.7 4.3-3.3 8.8-5 13-4.3 10.9-7.8 22.6-13.6 32-0.5 0.7-0.7 1.5-1.2 2.2-0.8 1.3-1.8 2.6-2.6 3.9-0.5 0.8-1.3 1.4-1.8 2.2l-0.9 0.9c-0.4 0.6-1 1.2-1.6 1.6-0.5 0.5-1.1 1-1.6 1.6-2.8 1.9-5.5 3.8-8.8 5.2-1.5 0.6-3.1 0.9-4.6 1.5-0.8 0.3-1.7 0.2-2.4 0.5h-5.9c0.6-2.9 1.4-6 2.2-8.9 0.4-1.5 0.5-3.7 1.2-4.9 1.5 0 2.9-0.8 4-1.4 3.2-1.5 6.2-4.1 8-7 0.9-1.4 2.6-3 1.5-5.5-5-11.6-10.2-23.6-15-35.3-1.3-3.3-2.8-6.6-4.2-9.9-0.3-0.8-1.5-2.7-1.5-3.5H899c1.1 0 4.8-0.2 5.4 0.1 0.1 1.3 0.8 2.8 1.3 3.9 1.1 2.8 1.7 5.8 2.7 8.5 1.6 4.4 2.6 9 4.2 13.3 0.5 1.4 0.7 3 1.3 4.3 0.2 0.4 0.1 0.7 0.2 1.1 0.4 1.3 0.7 2.8 1.2 4.2h0.4c0-1.1 0.7-3.4 1.1-4.4 0.1-0.6 0.2-1.2 0.3-1.7 0.5-1.3 0.7-2.9 1.2-4.2 0.5-1.3 0.5-2.7 0.9-4 1.2-3.5 2-7.4 3.1-11 0.3-0.8 0.2-1.5 0.5-2.3 0.5-1.5 0.9-3.3 1.4-4.8 0-0.3 0.1-0.5 0.1-0.8 0.1-0.6 0.4-1.4 0.5-2.3zM850.9 584.6h17c0 1.2-0.3 5.3 0.1 6.1h12.3v12h-8.7c-0.9 0-3-0.2-3.7 0.1v15.3c0 4.7 0 8.2 1.8 11 1.8 2.7 8.5 1.7 11.9 1v0.1c-0.4 0.9-0.4 2-0.7 3-0.7 1.9-1 4.1-1.6 6-0.4 1.3-0.4 2.9-1.1 4-0.7 0.1-1.4 0.4-2 0.5-0.4 0-0.8 0.1-1.3 0.1-1.3 0.3-3 0.3-4.6 0.3-10.8 0-16-3.5-18.5-11.8-0.3-0.9-0.3-1.9-0.5-2.8v-0.8c-0.3-0.9 0.1-2.1-0.2-3-0.2-0.8-0.1-2.1-0.1-3.1v-6.1-13.9h-7.3v-11.9h7.4c-0.2-2-0.2-4.1-0.2-6.1zM818.8 590.7h17.3v47.9c0 1.1 0.3 3.6-0.1 4.4h-17.2v-52.3z m7.7-22.7c4.4-0.1 7.4 1.2 9 3.9 2.1 3.5 1.1 8.6-1.8 10.5-1 0.7-2.1 1.2-3.3 1.6-0.6 0.2-1.1 0-1.7 0.2-1.3 0.3-3.4 0-4.3-0.3-2.7-1.1-4.5-2.2-5.6-4.9-0.2-0.5-0.1-1-0.3-1.6-0.3-1.1-0.1-2.8 0.2-3.8 0.8-2.2 2.5-4 4.6-4.9 0.4 0 3.2-0.7 3.2-0.7zM789.2 589.5c5.5-0.1 10.4 0.2 14.4 1.7 0.8 0.3 3.7 0.9 3.8 1.6-0.4 0.9-0.4 1.9-0.7 2.9-0.5 1.5-0.9 3.3-1.4 4.8-0.4 1.1-0.3 2.4-0.8 3.3-0.6-0.1-0.9-0.4-1.4-0.6-0.6-0.3-1.2-0.3-1.9-0.6-3.5-1.3-9.9-2.8-13.6-0.5-0.8 0.5-2.3 2-1.8 3.5 1.3 4 8.4 4.9 12.2 6.6 4.4 1.9 8.8 4.8 10.6 9.2 0.4 1.1 0.6 2.3 1 3.4 0 0.7 0.1 1.4 0.1 2.1 0.2 0.6 0.1 1.8-0.1 2.5-0.2 0.9-0.1 1.7-0.4 2.6-0.6 1.8-1.6 3.3-2.5 4.7-1.9 2.8-5.1 4.6-8.5 5.9-1.2 0.5-2.6 0.6-3.8 1.1-1.3 0.5-3 0.3-4.3 0.6h-1.3c-1.3 0.3-6.1 0.2-7.3-0.1-0.6 0-1.2-0.1-1.9-0.1-1.8-0.5-3.8-0.5-5.5-1.1-2.2-0.7-4.3-1.5-6.3-2.4 0.5-1.8 1-3.9 1.6-5.7 0.4-1.1 0.3-2.1 0.7-3.2 0.3-0.8 0.7-1.8 0.8-2.8h0.2c0.7 0.8 2.4 1.1 3.5 1.6 1.9 0.8 4 1.2 6.2 1.8 0.9 0.2 1.7 0 2.6 0.3 0.9 0.3 2.7 0.4 3.8 0.1 0.7-0.2 1.3 0.1 1.9-0.1 1.9-0.5 4.9-1.7 4.2-4.6-0.8-3.7-4.6-4-7.8-5.3-4.4-1.7-8.5-3.2-11.7-6-1.4-1.3-2.8-3.1-3.6-5-0.4-0.9-0.5-2-0.8-3-0.5-1.5 0.2-5.1 0.5-6.2 0.2-0.7 0.2-1.3 0.5-1.9 2.2-4.3 4.8-6.5 9-8.8 1.8-1 4.2-1.4 6.4-2 1 0 2.2-0.2 3.4-0.3zM728.1 590.7H743c0.2 3.2 0.5 6.4 0.7 9.5h0.4c0.4-1.8 1.6-3.2 2.4-4.5 3.1-4.4 9.8-8 17.6-5.8-1.2 4.9-2.4 9.8-3.7 14.7v0.1c-2.1-0.3-5.1-0.2-6.9 0.5-0.5 0.1-1 0.3-1.4 0.4-2.4 1-4.4 3.2-5.4 5.7-0.9 2.3-0.7 5.8-0.7 9V643h-17.3v-27.8c0-8.2 0-16.7-0.6-24.5zM691.9 589.6c2.4 0 5.2-0.2 7.1 0.3 0.4 0 0.8 0.1 1.2 0.1 1.9 0.6 3.9 0.9 5.5 1.7 4.8 2.4 8.7 6.1 10.9 11.1l1.5 4.2c0.2 0.6 0.1 1.1 0.3 1.8 0.3 1.1 0.3 2.5 0.6 3.8v1.9c0.2 0.7 0.2 2.1 0 2.7-0.1 0.5 0 1.3-0.1 1.7-0.3 1.2 0.1 2.5-0.5 3.4h-35.6c0.3 1 0.2 2.1 0.7 2.9 1.6 2.7 3.7 4.4 6.8 5.6 1 0.4 2.2 0.5 3.2 0.8 0.4 0 0.8 0.1 1.2 0.1 1.1 0.4 4.5 0.6 5.8 0.2h1.4c1.2-0.1 2.5-0.2 3.7-0.3 1.9-0.6 4-0.6 5.8-1.2 0.5-0.2 1.7-0.8 2.2-0.6 0.1 0 0.1 0.1 0.2 0.1 0 1 0.4 2.2 0.6 3.1 0.3 1 0.2 1.9 0.5 2.9 0.5 1.5 0.8 3.3 1.1 4.9-0.6 0.2-1.3 0.5-1.9 0.8-1.5 0.6-3.2 0.8-4.7 1.3-1.6 0.5-3.5 0.3-5.1 0.8-1 0.3-2.2-0.1-3.2 0.2-1.3 0.3-6.7 0.5-8.1 0.1-0.8 0-1.6-0.1-2.4-0.1-1.8-0.6-3.8-0.5-5.6-1.1-8-2.8-13.3-6.1-16.5-13.7-0.8-1.8-1.2-3.7-1.8-5.7-0.3-1 0-2.1-0.3-3.1-0.2-0.8-0.3-2.7-0.1-3.5 0.2-0.9 0-2.2 0.2-3.1v-0.9c0.3-1 0.3-2.1 0.6-3.2 0.6-1.7 1-3.3 1.7-4.9 2.7-6.3 7.9-11.1 14.4-13.6 1.8-0.7 3.7-0.9 5.7-1.5 0.7 0.1 2.6 0.3 3 0z m-9.1 21.3h20.3c0.1-7.3-6.2-12.7-13.7-9.7-3.7 1.4-6.2 5.2-6.6 9.7zM606.8 590.7h18.9c0 1 0.9 3.2 1.3 4.1 1 2.7 1.5 5.6 2.5 8.2 0.4 1.2 0.6 2.2 0.9 3.4 0.9 2.9 1.8 6.1 2.9 9.1 0.4 1.3 0.6 2.6 1.1 3.8 0.1 0.5 0.2 1.1 0.3 1.6 0.8 2.1 1 4.8 1.6 6.8h0.3c0-1.3 0.5-2.7 0.8-3.8 0.8-2.6 1-5.3 1.9-7.6 0.2-0.6 0.1-1 0.3-1.5 0.9-2.6 1.4-5.4 2.3-8 0.8-2.3 1.3-4.8 2.1-7.2 1-2.8 2-5.9 2.7-8.8h13.4c0.9 0 4.4-0.2 4.9 0.1-0.6 1.1-0.9 2.4-1.4 3.6-1.3 3.4-2.6 6.9-4.1 10.4-3.9 9.4-7.4 19.1-11.3 28.5-1.4 3.3-2.4 6.7-3.8 9.9H627c-6.8-17.6-13.5-35.1-20.2-52.6zM590.6 568c4.6-0.1 7.9 1.5 9.3 4.6 0.3 0.6 0.3 1.1 0.5 1.8 0.5 1.4 0.2 3.8-0.3 5-0.9 2-2.6 3.5-4.6 4.3-0.6 0.3-1.4 0.3-2 0.5-1.2 0.5-4.3 0-5.1-0.3-0.9-0.3-1.6-0.5-2.3-0.9-2.4-1.3-4.8-5.7-3.2-9.7 0.9-2.2 2.6-3.8 4.8-4.7 0.4-0.1 2.6-0.4 2.9-0.6z m-7.8 22.7h17.3v52.4h-17.3v-52.4zM535.2 643.2h-17.3v-40.3c-0.3-1.2 0.2-3.2-0.1-4.5-0.2-0.8 0.1-2-0.1-2.9-0.3-1.4-0.2-3.2-0.2-4.7h14.9c0.6 2.2 0.2 5.1 0.9 7.3h0.2c2.5-3.4 5.6-5.7 9.9-7.4 1.2-0.3 2.3-0.6 3.5-0.8 0.5 0 1-0.1 1.6-0.1 1.5-0.4 6-0.1 7.3 0.3 1.6 0.5 3.4 0.9 4.7 1.7 1.2 0.7 2.2 1.5 3.3 2.2 0.8 0.5 1.6 1.6 2.1 2.4 0.9 1.3 1.9 2.5 2.5 4.1 0.6 1.5 0.9 3.1 1.5 4.6 0 0.4 0.1 0.7 0.1 1.1 0.6 2.2 0.5 5.1 0.5 7.9v29.1h-17.3v-24c0-5.2 0.2-10.1-1.9-13.1-0.9-1.4-2.4-2.4-4.1-3-0.6-0.2-1.4-0.2-1.9-0.3-0.5-0.1-1.2 0-1.5 0.1-0.5 0-0.9 0.1-1.4 0.1-2 0.6-3.9 1.6-4.9 3.2-0.6 0.9-1.5 1.8-1.9 3-0.9 2.7-0.4 8.1-0.4 11.5v22.5zM442.7 570.9h17.4v40.5c0 1.2-0.1 2.7 0.1 3.7s-0.1 1.9 0.2 2.8c0.3 1.2 0.4 2.5 0.8 3.7 0.6 1.7 1.4 3.2 2.2 4.6 1.4 2.3 4 3.6 6.7 4.6 0.9 0.3 2.1 0.2 3 0.4 0.8 0.2 3-0.1 3.6-0.3 0.9-0.3 1.6-0.2 2.3-0.5 2.6-1.1 4.6-2.7 6-5 3.1-5.4 2.9-12.3 2.9-20.8v-33.7h17.3v33.6c0 6.3 0.3 12.8-1.1 17.7-0.4 1.2-0.4 2.3-0.8 3.4-3.7 9.3-8.3 14-18.2 17.1-3.2 1-7 1.5-11.2 1.5-1.6 0-3.7 0.2-5-0.2h-1c-0.7-0.2-1.5-0.1-2.2-0.3-2.5-0.8-5.1-1.1-7.3-2.1-5.1-2.3-8.4-5.8-11.3-10.3-0.7-1.1-1-2.4-1.6-3.6-2.6-6-2.7-14.1-2.7-22.8-0.1-11.3-0.1-22.6-0.1-34zM353 590.7h14.9c0.3 1.2 0.1 2.9 0.5 4v1c0.1 0.7 0.2 1.5 0.3 2.2h0.2c2.3-3.5 5.7-5.8 9.9-7.4 1.3-0.5 2.7-0.4 4.2-0.8 2.3-0.6 7.1-0.2 9 0.4 1.2 0.4 2.7 0.7 3.7 1.4l3.6 2.4c0.8 0.5 1.8 1.9 2.3 2.7 0.4 0.7 1 1.3 1.4 2 1.3 2.1 1.8 4.8 2.5 7.5 0 0.4 0.1 0.9 0.1 1.3 0.5 2.1 0.3 4.7 0.3 7.2v28.5h-12.2c-1.1 0-4.4 0.2-5.1-0.1v-22.9c0-5.6 0.3-10-1.7-13.7-1-1.9-2.6-2.9-4.8-3.6-0.5 0-0.9-0.1-1.4-0.1-0.3-0.1-1-0.3-1.5-0.1-0.9 0.3-2 0.3-2.9 0.6-2.6 1.1-4.3 3.2-5.4 5.7-0.8 1.8-0.4 7.1-0.4 9.8V643h-13.1c-0.6 0-3.9 0.1-4.1-0.1v-16.8V603c-0.3-1.2 0.2-3.3-0.1-4.5-0.2-0.8 0.2-2.1-0.1-3-0.2-1.2-0.1-3.3-0.1-4.8zM331.4 568c5.4-0.1 8.5 1.9 9.7 5.8 0.4 1.1 0.7 3 0.2 4.3-0.3 0.8-0.5 1.6-0.9 2.3-1.1 1.8-3 2.8-5.1 3.6-0.9 0.3-1.9 0.3-3 0.3-4.4 0-7.2-1.9-8.4-5-0.5-1.3-1-4-0.3-5.7 0.9-2.3 2.4-3.9 4.6-4.9 0.6-0.2 1.2-0.4 1.7-0.5 0.5-0.1 1.2 0.1 1.5-0.2z m-7.7 22.7H341v52.4h-17.3v-52.4zM301.8 568c5.2-0.1 8.1 1.7 9.5 5.4 0.5 1.2 0.8 3.2 0.3 4.8-0.2 0.7-0.5 1.5-0.9 2.1-1.3 2.1-3.4 3.1-6.1 3.9-1.5 0.4-3.9 0.1-5.1-0.3-0.8-0.3-1.3-0.4-2-0.7-3.1-1.5-5.1-6-3.4-10.3 0.7-2 2.7-3.5 4.7-4.3 0.6-0.1 2.9-0.4 3-0.6z m-7.6 22.7h17.3v44c0 1.3 0.2 3.1-0.1 4.3v2.1c-0.2 1.5-0.3 3.1-0.5 4.6-0.3 0.9-0.3 2.1-0.6 3-0.6 1.5-1.1 3-1.6 4.4-0.5 1.3-1.5 2.5-2.3 3.6-3.2 4.8-8 6.3-13.7 8.6-1.9 0.8-4.1 0.9-6.2 1.5-0.7 0.2-1.3 0.1-1.8 0.3h-5.6c0.6-3 1.4-6.1 2.2-9 0.4-1.6 0.4-3.7 1.2-4.9 1 0 1.8-0.4 2.5-0.6 2.9-1.1 5.5-2.1 7-4.6 0.9-1.4 1.1-3.4 1.6-5.1 0.2-0.6 0.1-1.3 0.2-1.8 0.3-0.9 0-2.1 0.2-3v-4.2c0.2-0.8 0.1-2.1 0.1-3v-6.8-21.3c0.1-4 0.1-8 0.1-12.1zM242.6 590.7c0.1 1.3 0.2 3 0.5 4.1v1c0.2 0.6 0.2 1.5 0.3 2.1h0.2c2-3.1 5.1-5.5 8.7-7 1.1-0.5 2.3-0.7 3.5-1.1 1.1-0.4 5.8-0.7 7.2-0.3h1c0.9 0.2 1.8 0.3 2.7 0.5 2.9 1 5.5 2.1 7.5 4 2.9 2.8 4.2 5.7 5.6 10 0.5 1.4 0.3 3 0.7 4.5v1.5c0.4 1.4 0.1 4.2 0.1 6v27h-17.3v-23.1c0-5.6 0.3-10-1.8-13.6-1-1.8-2.5-2.9-4.7-3.5-0.5 0-1-0.1-1.5-0.1-0.2-0.1-0.9-0.3-1.4-0.1-1 0.3-2 0.3-2.9 0.6-2.6 1.1-4.3 3.2-5.4 5.7-0.8 1.7-0.4 6.2-0.4 8.7V643H228v-27.3-8.3c0-1.3 0.2-3-0.1-4.1v-3.7c0-1.3 0.1-3.1-0.2-4.3v-1.4c0-1.1 0-2.6-0.2-3.5h0.1c5 0.3 10 0.3 15 0.3zM188.5 589.5c5.1 0 9.6 0.2 13.4 1.4 7.4 2.3 10.7 6.3 13.2 13.6 0.1 0.6 0.2 1.3 0.3 1.9 0.7 2.6 0.5 5.9 0.5 9.1v12.9c0 1.7-0.3 4.7 0.1 6.1v2.4c0.2 0.8 0 1.8 0.2 2.7 0.3 1.2 0.3 2.6 0.6 3.7h-15.7c0-1.5-0.6-3.7-1-5.2h-0.2c-2 2.7-5.4 4.4-9 5.6-1.2 0.4-2.5 0.4-3.7 0.8h-1c-1.9 0.5-6.2-0.1-7.6-0.5-0.3 0-0.5-0.1-0.8-0.1-4.2-1.5-7.5-3.6-9.5-7.2-1.3-2.2-2.3-4.6-2.3-8.2v-1.9c0.7-2.5 0.8-4.7 2-6.6 3.2-5.1 7.3-7.3 13.3-9.5 1.7-0.6 3.7-0.7 5.5-1.3 0.4 0 0.8-0.1 1.2-0.1 1.5-0.4 3.5-0.2 5.2-0.6 0.6-0.2 1.6 0 2.1-0.1h3.2c0-4.7-2.7-5.9-6.2-7.1-0.8-0.3-1.5 0-2.4-0.2-1.6-0.4-4.8 0-6.1 0.3-0.4 0-0.8 0.1-1.1 0.1-1.6 0.5-3.3 0.6-4.8 1.3-1 0.4-2.1 0.8-3.1 1.3-0.6 0.2-1 0.8-1.7 0.8-1.1-3.5-2.1-7-3.2-10.5 0.6-0.3 1.1-0.6 1.7-0.8l3-1.2c2.3-0.9 4.9-1.2 7.5-1.9 1.5-0.4 3.3-0.2 4.8-0.6 0.5-0.5 1.2-0.2 1.6-0.4z m8.6 29c-0.4 0.3-1.2-0.1-1.7 0.1-1.2 0.3-2.7 0.2-3.9 0.5-3 0.9-6 1.7-7.4 4.1-1.5 2.4-1 6.6 1 8 2.1 1.6 5.7 2.1 8.7 0.8 2.4-1 4.4-3 5.2-5.6 0.4-1.2 0.2-3 0.2-4.6v-3.5c-0.8 0.2-1.4 0.2-2.1 0.2zM147.7 568c4.6-0.1 7.5 1.4 9.1 4.2 0.5 0.9 0.5 1.9 0.8 3.1 0.2 0.8 0.1 1.8-0.1 2.5-1 3.5-2.8 5.1-6.1 6.2-0.9 0.3-1.9 0.3-3 0.3-4.5 0-7.4-2.1-8.7-5.4-0.6-1.5-0.6-4 0-5.5 0.9-2.3 2.6-3.9 4.9-4.8 0.7-0.1 2.9-0.4 3.1-0.6z m9.6 22.7v52.4h-17.4v-52.4h17.4zM73.7 570.9h58.8v9.7c0 1 0.2 3.3-0.1 4.1h-20.7v58.4H94.5v-58.5H73.9c-0.2-4.5-0.2-9.1-0.2-13.7z" fill="#ffffff" p-id="1305"></path></svg>
