<?xml version="1.0" encoding="utf-8"?>
<!-- Generator: Adobe Illustrator 23.0.0, SVG Export Plug-In . SVG Version: 6.00 Build 0)  -->
<svg version="1.1" id="图层_1" xmlns="http://www.w3.org/2000/svg" xmlns:xlink="http://www.w3.org/1999/xlink" x="0px" y="0px"
	 viewBox="0 0 1133.9 1133.9" style="enable-background:new 0 0 1133.9 1133.9;" xml:space="preserve">
<style type="text/css">
	.st0{fill:#ffffff;}
</style>
<path class="st0" d="M737.3,801.2c0.6-0.2,1-0.3,1.4-0.3c1,0,1.8,0.1,2.7,0.1c0.1,0.9-0.1,2.2-0.5,3.1l0.7,0.2l-0.7-0.2l-0.2,0.6
	c-1.2-0.9-2.5-2.1-3.2-3.1L737.3,801.2 M751.6,789.8l0.7,0c0.1-4.3,6.5-11.6,9.6-15.3c0.4-0.3,0.5-0.6,0.9-0.8
	c0.3-0.2,0.5-0.3,1.1-0.1c0.7,0.3,1.2,0.7,1.5,1.3c0.5,0.8,0.6,1.9,0.6,3.2c0,2.2-0.1,4.6-0.2,6.7v0l0,0.1
	c0.6,3.8,2.5,11.5-1.1,13.4l-0.6,0.3c-1.2-0.9-2.2-1.8-3.2-2.8l-0.2-0.1l-0.2,0c-0.9-0.1-1.7,0-2.2-0.1c-0.6-0.2-1.8-0.7-3-1.5
	c-1.2-0.7-2.2-1.5-2.6-2.3l-0.1-0.2l0-0.1l-0.1-0.1l0,0c-0.2-0.3-0.3-0.8-0.2-1.5L751.6,789.8z M757.1,802l0.6-0.3l1.3-0.5l0.9,0.6
	c0.1,0.6,0.3,1,0.3,1.2c-0.2,0.5-0.5,0.9-0.9,1.2c-0.5,0.3-1.1,0.4-1.9,0.2C756.9,803.5,756.9,803,757.1,802 M715.5,794.9l-0.7,0.4
	l1,0.6c1.5,0.9,3.2,2,4.7,2.9c3.8,2.8,8.6,6.3,11.3,10.6l0,0.1c0.5,0.7,1,1.5,1.4,2.2c0.8,1.3,1.3,2.5,0.8,3.6l0,0l0,0
	c-3.8-0.2-7.3-3.1-12.4-0.1c-0.6,0.4-1.2,0.8-1.8,1.3l-0.2,0.1l0,0.2l0.1,0.8l0.1,0.2l0.1,0.1l0.2,0.1c3.4,1.1,9.7,4.4,12.1,7.8
	c0.4,0.8,0.8,1.7,1.4,2.5c0.5,0.8,1.1,1.5,2.1,2l0.1,0.1l0.1,0c1.5,0.2,2.9,0.4,4.4,0.7l0.4,0.1l0.3-0.3c0.6-0.8,0.6-1.7,0.4-2.6
	c-0.5-2.7-2.2-6.5-0.1-9.1c1.4-0.7,2.7-0.2,4.5-0.4l0.1,0l0.1-0.1c0.4-0.3,0.5-0.5,0.7-0.6l0.4-0.2l0-0.4c-0.1-1.1-0.3-2.3-0.4-3.3
	l0-0.1l0-0.1c-0.3-0.7-0.7-1.7-1.1-2.7l0.6-1.5l2.7-6.6l0.4-0.2c0.5,0.2,1.4,0.8,1.7,1.4l0.2,0.6v0v0.1l0,0l-0.7,1l-0.4,0.4l0.4,0.6
	l0.2,0.2l0.3,0.1c0.7,0.1,1.3-0.1,1.7-0.3c0.8,0.9,1.4,1.8,2.4,2.6l0,0l0.1,0c1.1,0.5,2.9,1,2.9,1.3l0,0l0,0.1l0,0.1
	c-0.1,2.2-2.7,6.7-4.8,9.7c-0.3,0.6-0.6,1.1-0.8,1.4l-0.1,0.1l0,0.1c-4.3,7.7-8.7,15.3-13.1,23c-1.6,3.3-7.4,8-4.7,12.8l0.3,0.4
	l0.1,0.2l0.2,0.1c2.4,0.6,4.9,1,7.4,1.2c1.6-0.1,3.1-0.9,3.8-0.6l0.5,0.2l0.3-0.4c3.3-4.4,2.1-6.9,2.6-8.5c2.4-7.2,6-14.1,10.5-20.9
	c1.1-1.4,2.1-3,3.2-4.4c1.9-2.6,3.7-6,6.7-7.8l0.6-0.4l0,0c0.3,0.6,0.4,1.2,0.5,1.7c0.1,1.7-0.9,3.4-1.3,5.3c-0.4,3-1.3,6.2-2.3,9
	c-0.5,1.1-1.9,2.8-1.9,4.5c0.1,0.6,0.3,1,0.5,1.4c0.3,0.5,0.6,0.8,0.8,1.2l0.3,0.7l0,0.1l0,0l0,0.1c-0.5,1.3-3.3,4.3-4.2,5.6
	c-1.2,2.2-2.5,4.5-3.9,6.5c-3.2,4.2-8.7,7.6-9.8,12.7l-0.1,0.4l0.3,0.3c1,0.9,3.3,1.5,6,1.8c2.6,0.3,5.4,0.2,7.2-0.8l0.5-0.4
	c2.1-2.2,2.9-5.2,3.7-7.3c1-2.8,3.8-7.9,6.6-10.6l0.7-0.6c0.8,0.6,1.6,1.7,2.6,2.5c0.9,0.8,1.6,1.7,2,2.4c1.1,1.8,1.2,3.4,0.7,5.1
	c-0.6,2.3-2.8,4.5-5.5,6.7c-0.3,0.2-0.7,0.5-1.1,0.7c-1.3,0.8-2.9,1.5-4.3,2.4c-0.6,0.4-1.1,0.7-1.6,1.2l-0.4,0.7l0,0.1l-0.2,0.9
	l0.9-0.1c2.6-0.2,5.2-1.4,7.4-1.4c4.1-0.1,7.5-0.2,11.6-0.3h0.1l0.1,0l0.8-0.3l0,0l0.4-0.5c1.3-3.3,1-11.4-1.9-16.1
	c-0.3-0.6-0.7-1.1-1.1-1.5c-2.1-2.2-4.6-4.2-6-6.6l-0.6-1.1c0-0.3,0.8-1.4,1.6-2.3c0.9-1,1.9-1.9,2.2-2.1l5-3.1l0.1-0.1
	c1.7-2.2,1-4.8,1.1-6.6v-0.1v-0.1l-0.3-0.9c-0.6-0.9-1.7-0.8-1.7-0.9l-0.1,0l-0.1,0c-1.5,0-2.8,0.6-4,1.3c-0.8,0.5-1.6,1.1-2.3,1.7
	c-0.8,0.7-1.4,1.2-2,1.8l-6.3,3.9l0,0c-0.2,0-0.7-0.5-0.9-0.9l-0.2-0.3l0,0c0.8-2.6,3.7-5.2,5.2-8.3c0.2-0.5,0.6-1.1,0.9-1.7
	c1.3-3.5,2.2-6.8,3.3-10.1c0.5-1.5,2.1-5.2,0.5-7.9c-0.3-0.6-0.9-1.1-1.5-1.4c-1.8-1.1-3.8-0.6-5.5,0.4c-2.3,1.4-4.2,3.8-5.1,5.4
	c-0.2,0.5-0.6,0.8-0.8,1.5c-2.9,4.5-6.5,9-10.1,13.6c-1.2,1.9-2.7,3.7-3.7,5.7c-0.8,1.2-3.1,5.4-4.3,6.1h0c-0.7-1.9,1.3-4.8,2.3-7
	l4.1-7.9l6.6-13c0.5-0.5,1.4-1.2,2.4-1.8c0.6-0.3,1.3-0.7,2-1.1c1-0.6,1.9-1.3,2.5-2.3c3.8-6.5,1.8-14.8,2.1-21.5
	c0.1-2.7,0.8-11.5-2-16.1c-0.8-1.4-2.1-2.4-3.7-2.6c-1.7-0.2-3.6,0.3-5.9,1.7l-0.1,0.1l-0.1,0.1c-2,2.8-4.9,13-8.7,17.3
	c-0.4-2,0.4-4.5,1.2-7.2c0.9-3,1.7-6.3-0.1-9.2l-0.2-0.2l0,0c-0.5-0.7-1.3-0.9-2.3-1.1c-3-0.4-8.3,0-11.3,1.4l-0.5,0.2l0.1,0.5
	c0.3,1.5,1.7,3.3,2.3,4.6l0,0.6l0.7,6.5c0.2,2.1,1,4.7,1.2,7.1c0.1,2.4-0.3,4.3-2.4,5.6c-0.8,0.5-2,0.9-3.5,1.2
	c-0.5,0.1-0.6,0.2-0.9,0.2c-3.2,0.3-6-1.1-9.5-1.2c-1.6-0.2-3,0.3-4.4,0.3c-1.4,0-3.2-0.5-5.1,0.4l-0.7,0.3L715.5,794.9z M652.6,881
	c-0.4,1-0.3,2-0.1,3.1c1.4,5.3,9.2,10.8,12,13.1c0.8,0.6,1.3,1.3,2.2,2c0.7,0.6,1.6,1.1,2.9,1.2c0.9,0.1,1.7,0,2.4-0.2l0,0
	c4.6-1.2,7.2-6,9-7.9c0.4-0.6,1.6-1.5,2.6-2.4c1-1,2.1-2,2.2-3.3l0-0.8l-0.8,0c-1.4,0-2.6,0.1-3.9,0.2l0,0.7l-0.1-0.7
	c-1,0.1-2,0.2-2.9,0.5c-2,0.5-3.8,1.3-5.7,1.8c-1.2,0.3-2.5,0.5-3.8,0.5c-1.2,0-2.6-0.4-4.1-1c-3.8-1.5-7.7-4.5-10.1-7l-0.3-0.3
	l-1.2,0.3l-0.4,0.1L652.6,881z M639.5,885.9c1.2,7.7-1.1,12.4-5.1,16.3c-4.2,4.1-10.5,7.1-16.6,11l-0.3,0.2l-0.1,0.3
	c0,0.2-0.2,0.6-0.1,1.2l0.1,0.4l0.4,0.1c2.5,0.7,5.8-0.2,8.2-0.5c0.9-0.1,1.7-0.3,2.5-0.5c12.3-3.2,19.1-14.4,20.2-24.1
	c0.2-5,0.5-9.9,0.8-14.6c1.3-1.3,2.6-2.6,3.9-3.7l0,0l0,0c1.2-1.4,3.5-3.2,5.7-5.2l-0.5-0.5l0.5,0.5c3.3-3.1,7.5-7.3,8.4-10.6l0-0.1
	l0-0.1l-0.1-0.4c-0.5-1.6-2.2-2.1-4.1-2.6c-1.9-0.5-4.1-0.7-5.8-0.9c-0.2,0-3.8,0-5.1,0h-0.1l-0.1,0l-0.6,0.5l0,0.5
	c0.2,0.7,0.8,1.3,1.4,2.2c0.6,0.8,1.1,1.7,1.3,2.2l0,0.2c-0.1,1.4-3.3,4.8-5.1,6.5c-1.1-8.2,2-15.7,0.9-24l0-0.3l-0.2-0.2
	c-2.6-2.2-10.6-5.1-14.9-4.3l-0.3,0.1l-0.2,0.3l-0.2,0.7l0,0.1l-0.1,0.1l0,0.2c-0.1,1.1,0.1,2.2,0.4,3.2c0.6,2.3,1.6,4.5,2.2,6.8
	c0.2,0.8,0.4,1.6,0.4,2.4c0.6,8.3,1.7,16.4,1.8,24.4c-3.9,4.2-8.4,8.3-13.4,11.8c-1.9,1.5-4.9,1.9-7.5,3.6l-0.4,0.2l0,0l-0.7,0.2
	l0.3,0.8c1.6,3.6,4.4,8.8,8.8,7.9l0.8-0.3c2.5-1.2,4.6-3.1,6.5-5.5C635.4,890.1,637.3,888,639.5,885.9 M490.9,881.7
	c0.1-0.8,1.1-2.5,2.7-6c1.6-3.5,4.7-6,4.7-6c-0.1,1.1-0.5,1.2-0.7,2c-0.2,0.8-5.2,9.5-6,10.1C490.9,882.4,490.8,882.4,490.9,881.7
	 M541.5,846c1.2-1.5,4.7-1.8,4.7-1.8c0.1,1.8-2.6,3-3,3.2c-0.4,0.2-0.5,0.7-0.8,1.2c-0.3,0.5-1.5,0.7-1.5,0.7S540.3,847.5,541.5,846
	 M480.4,897.5c-0.2,2.3-2,7.1,2,7.3c3.8,0.1,3.7-1,5.8-4.9c1.7-3,3.5-4.6,5-7.8c1.5-3.3,2.1-3.2,2.5-4.2c0.3-1.1,0.3-2.5,1.1-5.5
	c0.8-3,2.1-7.7,2.5-9.4c0.4-1.7,1-3,1.9-5.1c0.8-2.1,2.8-2.9,4.3-3.2c0.5-0.1,4.7,0.3,5.2,0.4l0.2,0.6c0.2,0.3-0.7,0.2,5.7,2.5
	c0.2,0.1-0.1,1.4-0.2,2c-0.1,1.2-0.1,2.5-0.4,3.6c0,0-3.4,0.5-3.6,1.5c-0.2,1-0.6,1.9,0.7,2.5c1.3,0.6,2,1.3,2,1.3s0.1,1.2-0.2,3.2
	c-0.2,1-0.5,0.9-0.5,1.2c-0.1,0.3-2.5,0.4-2.9,0.7c-1.4,0.8-1.5,2.7,0.1,4.7c0.6,0.7,1.5,0.1,1.8,0.9c0.3,1.1-1,2.5-1.3,2.8
	c-0.9,1.1-2.4,2.8-4.5,3.1c-2.1,0.4-4.2,1.1-9.9-0.2c-0.8-0.2-1.6,0.6-2.1,1.5c0,0.6,0,1.3-0.4,2.1l0.1,0.2c0.8,0.8,2,1.8,2.6,2.9
	c0.6,1.1,0,1.7,2.2,2.3c3.3,0.9,4.1-1.5,6.7-0.7c2.6,0.8,0.1,2.6-0.3,3.7c-0.3,1.1-1.9,2.1-2.6,3c-1.9,2.3-1.2,6-0.2,8.5
	c0.8,1.9,2.6,7.3,5.5,6.1c1.2-0.5,5.5-4.5,6.9-6c1.4-1.5,2.1-2.6,2.5-3.9c0.4-1.4,1.5-13,2.6-13.6c1.8-1,4.8-0.5,6.8-0.7
	c3.5-0.4,7.1-0.9,10.5-1.6c1.2-0.2,2.5-0.5,3.7-0.8c1.5-0.3,2.9-1.1,4.5-1.5c1.3-0.3,3-0.5,4-1.5c0.8-0.9,1.5-1.5,1.6-2.4
	c0.1-0.9-0.5-2-1.1-2.7c-0.9-1-2.7-1-3.9-1.5c-3.1-1.3-5.8-3.1-8.5-5.1c-1.1-0.7-3.4-1.7-4-2.8c-0.4,0.2,0,0-0.2,0.6
	c0,0.4,0.5,1.4,1.3,4c1,3.2,2.4,6.1,1.4,6.4c-2.7,0.8-5.6,0.7-8.4,1.4c-0.9,0.3-1.6,0.4-2.5,0.7c-0.9,0.3-1.2,0.5-2.2,0.2
	c-1-0.3-2-1.2-2.3-2.5c-0.4-1.3-0.3-1.8,1-2.1c1.3-0.3,4.4-1.5,4.7-3c0.3-1.5-0.3-1.5-0.9-2.6c-0.6-1-3.4,2.1-1.8-3.4l0.3-1l3.3-0.2
	c0.3-0.1,0.7-0.2,1.2-0.3c1.4-0.3,4.6-0.9,5.9-1.9c0.4-0.3,1.1-2.1,1.2-2.5c0.1-0.4,0.7-1.2-0.9-2c-1.6-0.8-1.2,0.1-3.2,0.5
	c-2,0.3-6.5,0.4-6.5,0.4s0.3-1.4,0.4-2.8l0.2-1.1l0-0.1c0,0,0.6-1.4,3.4-3.5c2.9-2.1,13.4-3.9,16.9-4.4c3.5-0.4,9.4-1.1,10.6-1.2
	c1.2-0.1,1.4-1.6,0.7-3.3c-0.7-1.7-2-0.9-3.3-0.7c-1.6,0.2-3.1-0.3-4.7-0.2c-1.6,0.1-3.2,0.4-4.7,0.7c-2.2,0.3-6.5,1.3-7.9,1.4
	c-1.4,0.1-3.5,0.8-4.5,1c-1,0.2-0.9-0.2,0.2-1.6c1.1-1.5,3.8-1.5,4.9-1.4c1.1,0,2.9-0.7,4.8-1.6c2.9-1.3,5.3-3.4,7.9-5.3
	c1.3-1,2.8-1.9,4-2.9c1-0.8,2-1.8,2.6-3c0.6-1.3,0.1-2.1-0.5-3.3c-1-2.1-4.6-1.6-6.5-1.7c-0.5,0-1.2-0.1-1.7,0
	c-1.2,0.5-3.3,2.7-4.9,1.7c-0.5-0.3,0.3-3.2,0.6-4.9s-1.4-3.3-3-5.3c-1.6-2-3.7-5.6-6.6-6.3c-2.9-0.8-5.1,4.7-5.9,6.7
	c-0.5,1.3-0.8,2.7-1.3,4c-0.5,1.2-1.2,2.3-1.8,3.5c-0.9,2.1-0.8,6.7-3.9,7.1c-0.7,0.1-0.9,1.1-1.6,1.7c-0.7,0.7-2.9,1.5-2.6,2.6
	c0.3,1.1,2.7-0.3,3.2-0.2c0.4,0.1,0.8,1.3,0.8,1.6c0.3,1.2-0.7,3.1-1,4.2c-0.5,2-0.6,4.2-1.4,6.1c-0.4,1.1-6.6,0.4-8.5,0.4l-0.4,0.1
	l0,0l-0.2-0.4c-0.2-0.6-2.5-1.6-2.5-2.2c0.1-1.9-1.5-3-2.5-3.3c-1-0.3-2.6-1.6-3.2-2.1c-0.5-0.5-2.4-1.5-3.3-2.5
	c-0.8-1,0.3-3.3,0.4-4.1c0.1-1,1.5-2.2,2.1-3c1.6-1.9,4.6-3.5,7.1-3.3c1.9,0.1,3.4,0.5,4.8-1.1c3.3-3.8-0.8-8.2-4-10.2
	c-1.6-1-2.3-1.9-3.1-2.4c-0.9-0.5-3.7-2-4.8-2.8c-1.2-0.8-3.3-2.3-4.6-1.6c-1.3,0.7-0.2,2.1,1.7,4.9c0.9,1.3,1.4,2.6,1.2,4.2
	c-0.1,1.5-0.3,2.3,0.5,3.7c0.9,1.6,1.7,2.9,1.2,4.8c-0.6,2-3.2,6.1-3.8,6.8c-0.6,0.7-1.6,0.9-2.2,1.6c-2.7,2.6-2.8,5.4-1.7,8.8
	c0.8,2.7,0.6,7.5,0.4,9.6c-0.3,2.2-2.5,7-3.3,8.4c-0.8,1.4-2.4,4.3-4.6,9.2c-2.2,5-2.8,5.9-3.4,5.8c-0.5-0.1-2,2-2.5,2.9
	C479.9,894.3,480.5,896.3,480.4,897.5 M596.7,648.9c-1.8,1.5-2.7,3.2-2.7,5.1c0,1.9,0.9,3.6,2.7,5.1c1.8,1.5,4.5,2.5,7.6,2.5
	c3,0,5.7-1,7.6-2.5c1.8-1.5,2.7-3.2,2.7-5.1c0-1.8-0.9-3.6-2.7-5.1c-1.8-1.4-4.5-2.4-7.6-2.4h0C601.1,646.5,598.5,647.5,596.7,648.9
	 M559.1,658.7c2-1.5,2.8-3.2,2.8-5c0-1.8-0.9-3.5-2.8-5c-2-1.5-4.9-2.5-8.3-2.5h0c-3.3,0-6.3,1-8.2,2.5c-2,1.5-2.8,3.2-2.8,5
	c0,1.7,0.9,3.5,2.8,5c1.9,1.5,4.9,2.5,8.2,2.5C554.2,661.3,557.1,660.2,559.1,658.7 M539,679.4c0,1.8,0.9,3.5,3,5.1
	c2.1,1.6,5.3,2.7,8.9,2.7c3.6,0,6.8-1.1,8.9-2.7c2.1-1.6,3-3.4,3-5.1c0-1.8-0.9-3.6-3-5.1c-2.1-1.6-5.3-2.7-8.9-2.7h0
	c-3.6,0-6.7,1.1-8.8,2.7C539.9,675.8,539,677.6,539,679.4 M458.9,514.2c0-0.1,0.6-8,2.1-19.2c1.6-11.2,4.1-25.7,8.2-39.1
	c2.8-9,6.2-17.4,10.7-24.3c1.8-2.7,3.8-5.2,6.1-7.3c-3.2-16.9-6.9-25.6-7-25.9c-1.3-3,0-6.5,3.1-7.8c3-1.3,6.5,0,7.8,3.1
	c0.3,0.7,13.7,31.6,12.7,91.2c-0.5,29.8-4.6,66.8-15.8,110.7c-0.7,2.7-3.2,4.5-5.9,4.5c-0.5,0-0.9-0.1-1.4-0.2
	c-3.2-0.8-5.1-4-4.3-7.2c10.9-43.1,14.9-79.1,15.4-108c0.3-17.2-0.6-31.8-2.1-43.9c-1.3,2.2-2.6,4.8-3.8,7.6c-3.3,7.6-5.9,17-8,26.2
	c-4.1,18.4-5.7,36.3-6,40.1c0,0.5-0.1,0.8-0.1,0.8c-0.2,3.3-2.8,5.8-5.9,5.8l-0.5,0C461.1,520.7,458.7,517.7,458.9,514.2 M504.5,642
	c0-2.8,2.4-5,5.4-5c3,0,5.4,2.2,5.4,5v50.1c0,2.8-2.4,5-5.4,5c-2.9,0-5.4-2.2-5.4-5V642z M528.8,393.5L528.8,393.5
	c1.3-3,4.8-4.4,7.8-3c3,1.3,4.4,4.8,3.1,7.8l0,0l0,0l-0.1,0.2c-0.1,0.2-0.2,0.5-0.4,0.9c-0.3,0.8-0.8,2.1-1.4,3.9
	c-1.2,3.5-2.7,8.9-4.3,16.1c-0.3,1.5-0.6,3.1-1,4.8c2.3,2.1,4.3,4.6,6.1,7.3c2.6,3.9,4.8,8.4,6.8,13.2c3.9,9.5,6.7,20.3,8.8,30.6
	c4.2,20.5,5.5,38.7,5.5,38.9c0.2,3.5-2.2,6.5-5.5,6.7l-0.4,0c-3.1,0-5.7-2.5-5.9-5.8l0-0.3c0-0.2,0-0.5-0.1-1
	c-0.1-0.9-0.2-2.1-0.3-3.8c-0.3-3.2-0.8-7.8-1.6-13.2c-1.5-10.8-4-24.7-7.8-37.1c-2.2-7.4-5-14.1-8-19.2
	c-1.5,12.1-2.4,26.7-2.1,43.9c0.5,28.9,4.5,64.9,15.4,108c0.8,3.2-1.1,6.4-4.3,7.2c-0.5,0.1-0.9,0.2-1.4,0.2c-2.7,0-5.2-1.8-5.9-4.5
	c-11.1-43.9-15.3-80.9-15.8-110.7C515.1,425.1,528.5,394.2,528.8,393.5 M528.2,679.4c0-5.3,2.9-10,7.1-13l0.2-0.1
	c-3.8-3-6.5-7.5-6.5-12.5c0-5.2,2.8-9.7,6.8-12.8c4-3.1,9.3-4.8,15-4.8c5.7,0,11,1.7,15,4.8c4,3,6.8,7.6,6.8,12.8
	c0,5-2.7,9.5-6.5,12.5l0.2,0.2c4.1,3.1,7.1,7.7,7.1,13c0,5.3-2.9,10-7.1,13c-4.2,3.1-9.6,4.8-15.6,4.8c-5.9,0-11.4-1.8-15.6-4.8
	C531.2,689.3,528.2,684.7,528.2,679.4 M580.7,514.9c0-10.9,0.5-20.2,1.3-28.1c0.3-3.3,3.3-5.6,6.5-5.3c3.3,0.3,5.7,3.2,5.3,6.5
	c-0.8,7.4-1.3,16.3-1.3,26.9c0,15.5,1.1,34.7,4.1,57.9c0.4,3.3-1.9,6.2-5.1,6.7l-0.8,0.1c-2.9,0-5.5-2.2-5.9-5.2
	C581.8,550.6,580.7,531,580.7,514.9 M583.2,654c0.1-10.3,10-17.6,21-17.6c8.6,0,16.4,4.4,19.5,11.2l0.6,0.9c0.2,0.4,2,4.4,2,10.5
	c0.2,9.9-5.3,25.3-27.6,37.4c-0.8,0.5-1.8,0.7-2.7,0.7c-1.8,0-3.6-0.9-4.6-2.5c-1.5-2.4-0.7-5.5,1.9-6.9
	c11.1-6.2,16.7-12.4,19.6-17.8c-2.6,1-5.5,1.5-8.5,1.6C593.2,671.5,583.3,664.3,583.2,654 M629.5,579.5c-2.9,0-5.5-2.2-5.9-5.2
	c-3.1-23.7-4.2-43.3-4.2-59.5c0-10.9,0.5-20.2,1.3-28.1h0c0.3-3.3,3.2-5.6,6.5-5.3c3.3,0.3,5.7,3.2,5.3,6.5
	c-0.8,7.4-1.3,16.3-1.3,26.9c0,15.5,1.1,34.7,4.1,57.9c0.4,3.3-1.9,6.2-5.1,6.7L629.5,579.5 M632.5,689.4c0.9-2.7,3.9-4.1,6.7-3.3
	c1.9,0.6,4.5,0.8,7.6,1c0.5,0,1,0,1.5,0c3.8,0,7.8-0.9,10.5-2.4c2.8-1.6,4.2-3.3,4.6-6c0.1-0.5,0.1-1,0.1-1.4
	c-0.1-3.6-1.5-4.9-4.6-6.6c-3-1.5-7.5-2.1-10.7-2.1c-1.5,0-2.7,0.1-3.1,0.2v0c-1.6,0.6-3.5,0.4-5-0.6c-1.5-1-2.4-2.5-2.3-4.2
	l0.2-21.2c0.1-2.7,2.5-5,5.4-5h21.2c3,0,5.4,2.3,5.4,5c0,2.8-2.4,5-5.4,5h-15.9l-0.1,10.6c4.4,0.1,10,0.8,15.3,3.2
	c5.4,2.4,10.5,7.9,10.4,15.5c0,0.9-0.1,1.7-0.2,2.7c-0.8,6.1-4.9,10.8-9.8,13.4c-4.8,2.7-10.5,3.8-15.9,3.8c-0.7,0-1.5,0-2.2-0.1
	c-3.2-0.2-6.6-0.5-10.1-1.5C633.2,694.9,631.6,692,632.5,689.4 M675,600.4c-3.3,0-6-2.7-6-5.9v-73.2h-18.7c-3.4,0-6.1-2.7-6.1-5.9
	c0-3.3,2.7-5.9,6.1-5.9h18.7v-23.1h-18.7c-3.4,0-6.1-2.7-6.1-6c0-3.3,2.7-5.9,6.1-5.9h18.7v-23.2h-18.7c-3.4,0-6.1-2.7-6.1-5.9
	c0-3.3,2.7-6,6.1-6h7.4c0.1-1.9,0.2-3.9,0.2-5.8c0-9.3-1.6-19.9-6.7-35.1c-1-3.1,0.6-6.5,3.7-7.6c3.1-1.1,6.5,0.6,7.5,3.8
	c5.4,16.1,7.3,28.2,7.3,39c0,2-0.1,3.9-0.2,5.8H680c-0.1-1.9-0.2-3.8-0.2-5.8c0-10.8,2-22.9,7.3-39c1.1-3.1,4.4-4.8,7.5-3.8
	c3.1,1.1,4.8,4.5,3.7,7.6c-5.1,15.2-6.7,25.8-6.7,35.1c0,2,0.1,3.9,0.2,5.8h7.4c3.4,0,6.1,2.7,6.1,6c0,3.3-2.7,5.9-6.1,5.9H681v23.2
	h18.4c3.4,0,6.1,2.7,6.1,5.9c0,3.3-2.7,6-6.1,6H681v23.1h18.4c3.4,0,6.1,2.7,6.1,5.9c0,3.3-2.7,5.9-6.1,5.9H681v73.2
	C681,597.8,678.3,600.4,675,600.4 M640.2,434.3c0,7.5-0.9,14.4-2,21c-0.5,2.9-3,4.9-5.9,4.9l-1-0.1c-3.2-0.6-5.4-3.6-4.8-6.9
	c1.1-6.3,1.8-12.3,1.8-19c0-9.9-1.6-21.2-6.7-36.2c-1-3.1,0.6-6.5,3.7-7.5c3.1-1.1,6.5,0.6,7.5,3.7
	C638.3,410.2,640.2,423,640.2,434.3 M620.8,433.4c0,6.6-0.7,12.7-1.7,18.8c-1,6.1-2.2,12.1-3.4,18.9c-2,11.3-3.8,24.8-3.8,44
	c0,19.3,1.8,44.3,7.2,78.2c0.5,3.2-1.7,6.3-4.9,6.8l-0.9,0.1c-2.9,0-5.4-2.1-5.9-5c-5.5-34.4-7.4-60-7.4-80.1c0-20,1.9-34.4,4-46.1
	c1.2-6.9,2.5-13,3.4-18.7c0.9-5.7,1.5-11.1,1.5-16.9c0-9.5-1.6-20.3-6.7-35.4c-1.1-3.1,0.6-6.5,3.7-7.5c3.1-1.1,6.5,0.6,7.5,3.7
	C618.9,410.2,620.8,422.4,620.8,433.4 M601.4,434.3c0,7.5-0.9,14.4-2,21c-0.5,2.9-3,4.9-5.8,4.9l-1-0.1c-3.2-0.6-5.4-3.6-4.8-6.9
	c1.1-6.3,1.8-12.3,1.8-19c0-9.9-1.7-21.2-6.7-36.2c-1-3.1,0.6-6.5,3.7-7.5c3.1-1.1,6.5,0.6,7.5,3.7
	C599.5,410.2,601.5,423,601.4,434.3 M408.3,527c1.1,37.4,8.9,76.6,29.3,113.1c47.6,85.2,126.3,125.7,144.6,134.1
	c0,0,85.5-28.4,144.5-134.1c20.4-36.5,28.3-75.7,29.4-113.1c-25-9.2-41.9-28-40.8-48.9c0.8-17,13.3-31.5,31.8-40.1
	c-10.7-48.3-26.7-81.7-26.7-81.7c-72,25.5-138.1-33.7-138.1-33.7s-66.2,59.2-138.1,33.7c0,0-16.1,33.4-26.7,81.7
	c18.5,8.5,31,23.1,31.8,40.1C450,499,433.2,517.8,408.3,527 M428.6,646c-21.5-38.5-29.7-79.8-30.8-118.6l-0.2-8.3l7.3-2.7
	c10.8-4,19.6-10,25.3-16.5c5.8-6.6,8.4-13.3,8.5-20c0-0.4,0-0.8,0-1.1c-0.3-5.6-2.4-11-6.7-16.3c-4.3-5.3-10.7-10.2-18.7-13.9
	l-8.1-3.8l2-9.3c11-49.6,27.4-83.7,27.6-84.3l4.1-8.6l8.5,3c13.2,4.7,26.2,6.6,38.7,6.6h0.3c46.5,0,85.4-35.4,89.4-38.5l0.3-0.2
	l6.1-4.7l6.1,4.7l0.3,0.2c3.9,3,43,38.6,89.7,38.5c12.5,0,25.5-1.9,38.7-6.6l8.5-3l4.1,8.6c0.2,0.5,15.1,31.4,26,77.1
	c0.2,1,0.5,2,0.7,3c0.1,0.4,0.2,0.8,0.3,1.2c0.1,0.6,0.3,1.2,0.4,1.8c0.1,0.4,0.2,0.8,0.3,1.2l0.9,4.3l1.1,5l-8.1,3.8
	c-8.1,3.7-14.5,8.6-18.7,13.9c-4.3,5.3-6.4,10.7-6.7,16.3c0,0.3,0,0.7,0,1.1c0,6.6,2.7,13.4,8.5,20c5.7,6.5,14.5,12.5,25.3,16.5
	l7.3,2.7l-0.2,6.8l-0.1,1.5c-1.1,38.8-9.3,80.1-30.8,118.6c-49.6,88.6-130.1,129.7-149.5,138.7l-4.1,1.3l-4.1-1.3
	C558.7,775.7,478.2,734.5,428.6,646 M417.3,653.3C469.4,746,552.2,788,572.9,797.7l9.3,3.7l9.3-3.7c20.7-9.7,103.4-51.7,155.6-144.4
	c22.9-41,31.6-84.8,32.7-125.5l0-0.8h0l0.5-18c0,0-22.8-7-29.7-11.6c-10.4-7-13.3-15.2-8.3-25.8c4.8-10.1,32.3-18.7,32.3-18.7
	l-4.6-20.9c-0.3-1.4-0.6-2.7-0.9-4h0c-11.3-49.1-27.3-82.3-27.8-83.5l-9.3-19.3l-19.2,6.8c-11.8,4.2-23.4,5.9-34.6,5.9
	c-42.7,0.4-80.7-34.5-82.4-36.1l-13.8-10.6l-13.8,10.6h0c-1.7,1.5-39.7,36.5-82.4,36.1c-11.2,0-22.8-1.7-34.6-5.9l-19.2-6.8
	l-9.3,19.3c-0.6,1.2-17.4,36.3-28.8,87.5l-4.6,20.9c0,0,27.5,8.5,32.3,18.7c5.1,10.6,2.2,18.8-8.2,25.8
	c-6.8,4.5-29.7,11.6-29.7,11.6l0.5,18.8C385.7,568.5,394.4,612.3,417.3,653.3 M414.4,802.7c0.9-1.7,3.2-2.5,3.2-2.5l0.8-0.3
	c2.2,0.6,1.9,3.5,1.3,3.2C419.2,802.9,414.4,802.7,414.4,802.7 M341.9,820.1c-2.6,1.9,3.5,10.6,9.3,13.7c3.8,2,9.2,1.2,13.2,0.6
	c5.6-0.8,11.4-1.6,16.2-4.8c4-2.6,7.7-5.7,11.4-8.8c1.8-1.5,3.5-2.9,5.2-4.5c4.2-3.7,9.8-8.1,9.8-8.1s-8.7,17.2-12,25.5
	c-3.3,8.3-4.5,20.5-1.9,24.1c2.6,3.6,10.2,3.4,11.6,3.9c1.4,0.5,8.8,2.9,12.6,4.3c3.8,1.3,4.9-1.6,3.2-2.8c-1.7-1.2-2.1-1.6-5.4-3.8
	c-3.3-2.2-7.7-5.8-8-6.5c-0.3-0.7-0.2-4.6,0-7.4c0.2-2.8,0.5-17.2,1.2-21.7c0.7-4.5,4-15.5,4-15.5s5-0.2,12.3,1
	c7.4,1.3,9,0.1,10-0.7c1-0.8,2.1-1.9-0.9-2.7c-3-0.8-7.8-4.9-8.2-5.2c-0.4-0.3-1.1-1.2-2.6-1.3c-1.5,0-2.4-1.5-2.4-1.5
	s-0.3-1,0.5-1.9c0.8-1,0.5-4.4,0.5-4.4c1.4,2.5,9.5,3.5,12.9,3.2c3.4-0.3,10-0.5,12.6-1c2.7-0.4,3.7,1.5,7.5-0.5
	c2.4-1.3,0.7-0.1,3.1-1.7c2.4-1.5,1.9-2.3,1.1-3.7c-0.7-1.4-3.2-2.1-5.2-3.3c-2-1.2-4.7-2.6-5.9-3.2c-1.2-0.7-0.6-0.2-4.2-0.7
	c-3.5-0.5-7.9-2.3-12.3-3.6c-4.4-1.2-6.2-2.3-7.2-3c-0.9-0.8-1.5-1.7-3.9-0.8c-1.6,0.6-1.5,2.2-1.3,3.6c0.2,1.7,0.1,2.8,0,4.5
	c-0.1,1.4,0.9,2.5,0.6,4c0,0-0.9-0.9-2.4-1.9c-1.5-1.1-2.8,1.2-3.7,2.4c-0.9,1.1-3.7,4.7-4.9,5.6c-1.2,0.9-2.4,2.6-3.7,4.1
	c-1.2,1.5-5.4,5-5.4,5c-2.6,0.3-21.3-2.3-24.5-2.8c-3.2-0.5-5.6-6.6-5.6-6.6c-3.7,1.4-5.5,8.5-5.3,12c0.1,2.1,0.7,4.5,1.7,6.4
	c1.6,3.1,6.8,4.9,12.1,4c5.3-0.9,13.4-3.8,13.4-3.8c-3.4,4.9-6.3,7.7-18.5,14.3c-12.2,6.6-17.5,2.3-21.1,0.6
	C347.9,823.2,343.5,818.9,341.9,820.1 M257.5,717.4l-11.7,6.6c5.8,11.6,12.1,22.8,19,33.6l11.7-6.6l-6.2-11l40.9-23.1
	c-2.3-3.8-4.4-7.6-6.5-11.5l-40.9,23.1L257.5,717.4z M292.3,679.7l-55.5,25.1c1.7,4.1,3.6,8.1,5.5,12.1l55.5-25.1
	C295.9,687.8,294.1,683.8,292.3,679.7 M260.1,667.5l-11.1,1.4c-3.5,0.4-8.6,1.3-12.3,1.7l-0.1-0.1c3.2-1.8,7.7-4.3,10.8-6.1l9.8-5.6
	L260.1,667.5z M276.4,632.2l-54,33.2c1.7,5.7,3.6,11.2,5.5,16.8l63-5.8c-1.8-4.3-3.4-8.6-5-12.9l-13.6,1.7l-4-12.1l11.9-7
	C278.9,641.6,277.6,636.9,276.4,632.2 M268.6,586.3l-60.2,9.9c0.4,4,0.9,8,1.5,12l14.3-2.4c9.1-1.5,17.6-3.2,25.5-5.2l0,0.2
	c-6.8,3.3-14.4,7.5-20,11.2l-17.4,10.8l0.3,1.6c0.8,4.6,1.8,9.2,2.8,13.7l60.2-9.9c-0.9-3.9-1.8-7.9-2.5-11.8l-14.3,2.4
	c-9.8,1.6-19,3.3-27.2,4.9l0-0.2c7-3.5,14.6-8.1,20.7-11.9l18.2-11.1C269.6,595.7,269,591,268.6,586.3 M243.4,557.4l-37,1.4
	c0,4.4,0.1,8.9,0.3,13.2l37.2-1.5c8.3-0.3,10.8,2.4,10.9,6.6c0.1,2.1-0.3,4.2-0.8,5.8l13,1c0.9-2.5,1.2-6.1,1.1-8.8
	C267.7,563.4,260.9,556.8,243.4,557.4 M267.8,536.8l-60.8-2.5c-0.3,4.4-0.4,8.8-0.5,13.2l60.8,2.5
	C267.3,545.6,267.5,541.2,267.8,536.8 M274.6,487.8l-60.3-9.2c-0.8,3.9-1.6,7.9-2.3,11.9l14.3,2.2c9.1,1.4,17.7,2.4,25.8,2.9l0,0.2
	c-7.5,1.1-16,2.6-22.5,4.4l-19.9,4.9c-0.7,5.1-1.3,10.3-1.8,15.5l60.3,9.3c0.3-4,0.7-8,1.2-12l-14.3-2.2c-9.9-1.5-19.1-2.8-27.4-3.8
	l0-0.2c7.8-1.2,16.4-3.1,23.3-4.9l20.7-4.9C272.7,497.1,273.6,492.5,274.6,487.8 M265.1,423.8l-30.6-10.6c-1.7,4-3.2,8.1-4.8,12.2
	l-0.1,0.1l33,11.5c9.2,3.2,13,7.2,11.3,12.2c-1.7,4.9-7.6,5.6-16.4,2.5l-33-11.5c-1.4,4.2-2.6,8.4-3.9,12.7l30.1,10.4
	c18.8,6.5,29.8,2.9,34.3-9.9C289.6,440.4,283.1,430,265.1,423.8 M313.3,391.9l-54.1-28.2c-2.1,3.5-4.1,7-6,10.5l12.9,6.8
	c8.2,4.3,15.9,8,23.5,11.1l-0.1,0.2c-7.4-1.4-16-2.7-22.7-3.1l-20.5-1.8c-2.3,4.6-4.6,9.3-6.7,14.1l54.1,28.2
	c1.6-3.7,3.3-7.4,5.1-11l-12.8-6.7c-8.8-4.6-17.2-8.8-24.7-12.4l0.1-0.2c7.7,1.4,16.5,2.4,23.7,2.9l21.1,2
	C308.4,400.1,310.8,396,313.3,391.9 M323.6,376.2l-50.7-33.7c-2.5,3.6-5,7.3-7.3,11l50.7,33.8C318.6,383.5,321,379.8,323.6,376.2
	 M343.1,351l-36.7-50.3c-3.2,3.4-6.3,6.9-9.3,10.4l15.6,19.6c4.2,5.3,8.8,10.9,13.9,16.6l-0.1,0.1c-6.9-4.1-13-7.4-19.3-10.5
	l-22.1-11.3l-0.7,0.8c-2.7,3.5-5.4,7.1-7.9,10.7l56.4,26.2C336.2,359.2,339.6,355.1,343.1,351 M330.7,295.2l13.6-13l-9-9.5
	c-3,2.6-5.9,5.2-8.8,7.9l-8,7.6c-2.2,2.2-4.4,4.4-6.5,6.6l42,44.1c7.5-7.9,15.6-15.5,24.1-22.7l-9.1-9.6l-14.4,13.7l-7.8-8.2
	l12.8-12.2l-9.2-9.7l-12.8,12.2L330.7,295.2z M375,275.1l-2.8,2l-8.6-11.8c0.4-0.5,1.4-1.5,3.4-2.9c3.6-2.5,7.1-1.9,9.8,1.9
	C379.4,268,379,272.2,375,275.1 M388.6,272.6c2.1-3.7,2.6-10.8-1.9-17.1c-3.6-4.9-7.6-7.4-11.9-8c-3.3-0.4-6.1-0.8-10.2,2.2
	c-3.5,2.6-3.9,2.8-5.8,4.2c-3.4,2.5-6.8,5.1-10.1,7.8c-0.9,0.8-1.6,1.6-2.2,2.3l35.7,48.9c3.4-2.8,6.8-5.5,10.3-8.1l-13.2-18.1
	l1.7-1.3c3.3-2.4,5.7-2.2,11.1,3c5.1,4.7,8.6,7.7,10.5,9c3.8-2.6,7.6-5.2,11.5-7.6c-2.2-1.4-8.7-7.6-13.7-11.8
	c-4.1-3.6-7.9-5.7-11.6-5.2L388.6,272.6z M409.7,235.9c4.4-2.4,8.4-2.7,10.8-2.7l-3.9-11.3c-3.7,0-8,0.8-13.2,3.7
	c-10.9,6-13.2,15.4-8.1,24.8c4.3,7.9,11.7,10.2,20.8,9.3c6-0.6,8.7-0.2,10.1,2.4c1.4,2.7,0.4,5.4-3.6,7.6c-4.3,2.4-9.5,3.1-13,2.9
	l4.2,12.9c3.3,0.2,9.3-0.8,14.5-3.7c12.6-7,14.2-18,9.3-27.1c-4-7.4-10.3-10.6-19.9-9.7c-6.8,0.5-9.7,0.7-11.2-2
	C405.1,240.5,406.2,237.9,409.7,235.9 M463.6,264.3l-24-55.9l-12.2,5.2l24,55.9C455.5,267.7,459.5,265.9,463.6,264.3 M491.7,254.4
	l-14.4-44.7l12.2-3.9l-4.1-12.8c-2.5,0.7-5.1,1.4-7.6,2.1l-21.3,6.9c-2.6,0.9-5.2,1.9-7.8,2.9l4.1,12.8l12-3.9l14.4,44.7
	C483.3,257,487.5,255.6,491.7,254.4 M527.7,220.8L537,183c-4.3,0.5-8.6,1.1-12.9,1.8l-1.6,0.3l-1.5,14.4c-0.4,4.4-0.8,7.9-1.1,11.7
	l-0.1,0c-1.8-3.7-3.2-6.6-5.4-10.6l-6.6-12.9l-3,0.5c-3.9,0.8-7.7,1.7-11.6,2.6l21.6,32.9l4.3,23.6c4.3-0.9,8.6-1.7,13-2.3
	L527.7,220.8z M578.1,241.1c-3.9-7-7.4-17.5-8-31.2c-0.5-12.5,1.5-22.4,4.3-29.5c-3.1,0.1-6.1,0.2-9.2,0.3c-3,6.3-5.8,16.2-5.3,29.6
	c0.6,15,5.2,25.3,9.1,31.1c1.1,0,2.2-0.1,3.4-0.1L578.1,241.1z M608.8,200.9c-0.3,5.3-3.7,8.4-8.9,8.1c-1.4-0.1-2.3-0.2-3-0.4
	l0.9-15.7c0.7-0.1,2-0.3,4-0.1C606.7,193.1,609.1,196.3,608.8,200.9 M616.2,216.1c3.3-3.3,5.3-8.7,5.6-14.9
	c0.3-6.3-1.6-11.9-4.8-15.2c-3.3-3.5-7.7-4.8-14.8-5.2c-7.5-0.4-13.2-0.6-16.9-0.1l-3.4,60.5h0.2c4.3,0,8.7,0.1,12.9,0.3l1.1-20.2
	c0.8,0.1,2,0.3,3.2,0.4C606.1,222,612,220.4,616.2,216.1 M660.8,202l2.3-13c-2.9-0.6-5.8-1.2-8.7-1.8l-13.1-2.3
	c-3.3-0.5-6.5-1-9.8-1.4l-10.6,60c11,1.4,21.9,3.3,32.6,5.7l2.3-12.9l-19.5-3.4l2-11.2l17.4,3.1l2.3-13.2l-17.4-3.1l1.7-9.8
	L660.8,202z M671.4,254l16.1-58.7c-4.2-1.2-8.5-2.4-12.8-3.5l-16.1,58.7C662.9,251.6,667.2,252.7,671.4,254 M707.3,240.4l27.7-27.7
	c-4.5-2-9-3.9-13.5-5.7l-8.8,11.6c-2.6,3.5-4.8,6.3-7,9.5l-0.1,0c0.4-4.1,0.7-7.3,0.9-11.8l1.1-14.5l-1.6-0.6
	c-4.1-1.4-8.3-2.8-12.5-4.1l1.4,39.3l-8.6,22.5c4.2,1.4,8.3,3,12.3,4.6L707.3,240.4z M749.6,232.5c-1,3.6-2.5,8.5-3.5,11.9
	l-3.1,10.9l-8.1-4.2l6.9-8.8c2.3-2.7,5.3-7,7.6-9.9L749.6,232.5z M747.9,287.7l15.2-61c-5.2-2.9-10.5-5.6-15.8-8.2l-40.8,47.7
	c4.3,1.8,8.4,3.7,12.6,5.7l8.6-10.8L739,267l-3.6,13.4C739.6,282.7,743.8,285.1,747.9,287.7 M784.3,314.5l35.9-49.3
	c-3.1-2.6-6.3-5.1-9.5-7.5l-8.5,11.7c-5.4,7.5-10.3,14.6-14.5,21.6l-0.2-0.1c2.5-7.1,5-15.5,6.4-22l4.8-19.9
	c-4.2-3-8.6-5.9-12.9-8.7L750,289.5c3.4,2.2,6.8,4.4,10.1,6.6l8.5-11.7c5.9-8.1,11.2-15.7,15.9-22.6l0.2,0.1c-2.5,7.4-4.8,16-6.4,23
	l-5.1,20.7C776.9,308.5,780.6,311.5,784.3,314.5 M848.2,312.5l10.6-7c-0.7-2.9-3.3-7.5-8-12.2c-11.4-11.3-27.6-13.1-42.7,2.1
	c-6.3,6.3-9.5,12.6-10.1,19.8c-0.6,6.9,2,13.7,8.9,20.5c4.6,4.5,10.9,8,14.6,9.4l23.1-22.9l-13.7-13.6l-9,9.1l4.7,4.6L819,330
	c-0.6-0.2-2-1.3-3.3-2.5c-5.8-5.7-5.3-14.6,2.8-22.8c8.8-8.9,17.3-7.9,23.1-2.2C845.7,306.4,847.3,309.5,848.2,312.5 M879.1,383.2
	l26.9-18c-2.2-3.8-4.5-7.5-6.9-11.2l-0.1-0.1l-29.1,19.4c-8.1,5.4-13.6,6-16.5,1.6c-2.9-4.3,0.1-9.4,7.9-14.6l29.1-19.4
	c-2.5-3.6-5.1-7.2-7.8-10.7l-26.5,17.7c-16.5,11-20.3,22.1-12.8,33.3C851,392.8,863.2,393.8,879.1,383.2 M875.4,440.8l55.1-26.1
	c-1.5-3.7-3.1-7.4-4.7-11.1l-13.2,6.2c-8.4,4-16,7.9-23.1,12l-0.1-0.2c5.6-5.1,11.8-11.2,16.2-16.2l13.8-15.2
	c-2.3-4.7-4.7-9.3-7.2-13.8l-55.1,26.1c2,3.5,3.9,7.1,5.7,10.7l13-6.2c9-4.3,17.4-8.4,24.8-12.2l0.1,0.2
	c-5.8,5.3-11.9,11.8-16.6,17.1l-14.3,15.6C871.8,432,873.7,436.4,875.4,440.8 M881.8,458.6l57.5-20c-1.4-4.2-2.8-8.4-4.4-12.5
	l-57.5,20.1C878.9,450.2,880.4,454.3,881.8,458.6 M890.1,489.3l62.2,1.1c-0.8-4.6-1.7-9.1-2.7-13.6l-25.1,0.6
	c-6.7,0.1-14,0.5-21.7,1.1l0-0.1c7.5-3,13.7-5.9,20-9.1l22.3-10.8l-0.3-1c-1.2-4.3-2.4-8.5-3.7-12.8l-54.9,29.2
	C887.7,478.9,888.9,484.1,890.1,489.3 M944.2,531.7l13-1.5c-0.3-3.9-0.6-7.9-1-11.8l-1.2-10.9c-0.4-3.1-0.8-6.1-1.3-9.2l-60.5,6.9
	c1.8,10.8,3,21.8,3.6,32.9l13.1-1.5l-2.2-19.7l11.3-1.3l2,17.6l13.3-1.5l-2-17.6l9.9-1.1L944.2,531.7z M946.3,561.8
	c-0.2,4.4-2.8,6.8-7.4,6.7c-4.6-0.1-7.6-3-7.5-8l0.1-3.4l14.6,0.3C946.2,558,946.4,559.3,946.3,561.8 M953.5,577
	c2.3-2.4,4.4-4.4,4.4-9.5c0.1-4.4,0.1-4.8,0.2-7.2c0.1-4.3,0-8.5-0.1-12.8c-0.1-1.2-0.3-2.2-0.5-3.2l-60.6-1
	c0.2,4.4,0.3,8.7,0.3,13.1l22.4,0.4l0,2.1c-0.1,4.1-1.7,5.9-9.1,7.1c-6.8,1.2-11.3,2.2-13.5,3c-0.2,4.6-0.5,9.2-0.9,13.8
	c2.5-0.9,11.4-2.4,17.7-3.8c5.3-1.2,9.3-2.8,11.1-6.1l0.4,0c1.7,3.9,7.1,8.6,14.8,8.7C946,581.8,950.4,580.1,953.5,577 M948.6,625.8
	c2.2-3,4.2-6.9,5-12.8c1.8-12.3-4.3-19.8-14.9-21.4c-8.8-1.3-15.2,3.2-19.9,11c-3.1,5.2-5.1,7.1-8,6.6c-3-0.5-4.5-2.9-3.9-7.4
	c0.7-4.9,3.3-9.4,5.6-12.1l-12.8-4.5c-2.2,2.5-4.9,7.9-5.8,13.8c-2.1,14.3,5.8,22.2,16,23.8c8.3,1.3,14.6-1.8,19.8-10
	c3.7-5.7,5.3-8.1,8.3-7.7c2.6,0.4,4.1,2.8,3.5,6.8c-0.7,4.9-2.9,8.3-4.4,10.2L948.6,625.8z M886.5,637.7l59,14.6l3.2-12.9
	l-59.1-14.6C888.7,629.2,887.7,633.5,886.5,637.7 M917.6,693.7l12.7,4.5c1-2.4,2-4.9,2.9-7.4l7.4-21.2c0.8-2.6,1.7-5.3,2.4-8
	l-12.7-4.4l-4.2,11.9l-44.3-15.5c-1.4,4.2-2.8,8.4-4.4,12.5l44.3,15.5L917.6,693.7z M882.5,715.1l24.6,30.2
	c2.2-3.8,4.3-7.5,6.4-11.4l0.7-1.4l-10.6-9.9c-3.2-2.9-5.8-5.4-8.7-7.9l0.1-0.1c4,0.8,7.2,1.4,11.6,2.1l14.3,2.5l1.4-2.7
	c1.7-3.6,3.3-7.2,4.9-10.8l-39.3-2.6l-21.5-10.8c-1.9,4-3.9,7.9-5.9,11.8L882.5,715.1z M871,747.9c11.4,7.2,21.4,9.6,28.4,10.1
	c1.6-2.6,3.2-5.1,4.8-7.7c-7.6-1.1-17.2-4.3-27.7-11c-11.6-7.3-19.2-15.6-23.2-22.4l-0.2,0.3c-1.5,2.5-3,4.9-4.5,7.4
	C851.7,730.7,858.3,739.8,871,747.9 M985.7,556.1c0,222.9-180.4,403.6-403,403.6c-222.6,0-403-180.7-403-403.6
	c0-222.9,180.4-403.6,403-403.6C805.3,152.5,985.7,333.2,985.7,556.1 M1011.5,489l-21.2-23.9l9.8-28.4l-24-21.1l6.2-29.4l-26.5-18
	l2.6-29.9L930,323.7l-1.1-30l-30-11l-4.8-29.6l-31.1-7.2l-8.4-28.8l-31.8-3.4l-11.9-27.5l-31.9,0.5l-15.2-25.8l-31.7,4.5l-18.2-23.8
	l-30.8,8.3l-21.1-21.4l-29.6,12.1l-23.5-18.7L581,137.5l-25.7-15.6l-25.8,19l-27.3-12.4L479,150.4l-28.7-8.8L430,166.2l-29.5-5.3
	l-17.2,27l-30-1.6l-13.7,28.9l-30,2.1l-10,30.3l-29.5,5.8l-6.3,31.3l-28.5,9.3l-2.4,31.9l-27.1,12.7l1.5,32l-25.4,16l5.5,31.5
	l-23.2,19l9.3,30.6l-20.7,21.7l13,29.2l-17.9,24.1l16.5,27.4L149.6,596l19.7,25.2l-11.5,27.7l22.6,22.6l-8,28.9l25.3,19.5l-4.4,29.7
	l27.5,16.4l-0.7,30l29.3,12.8l3,29.9l30.6,9.1l6.6,29.3l31.5,5.3l10.1,28.2l31.9,1.4l13.6,26.8l31.8-2.5l16.8,24.9l31.3-6.4
	l19.7,22.6l30.2-10.2l22.4,20l28.7-13.9l24.6,17.2l26.8-17.3l26.5,14l24.6-20.5l28.1,10.6l21.8-23.4l29.2,7.1l18.8-25.8l29.8,3.5
	l15.5-28l30-0.2l11.9-29.7l29.7-3.9l8.2-30.9l29-7.6l4.3-31.7l27.9-11l0.4-32l26.4-14.4l-3.5-31.7l24.4-17.5l-7.4-31.1l22-20.4
	l-11.1-29.9l19.3-22.9l-14.7-28.4l16.4-25.1L998.3,516L1011.5,489z M1002.3,462.7l21.8,24.6l-13.6,27.8l18.7,27.1l-16.9,25.9
	l15.1,29.2l-19.9,23.6l11.5,30.8l-22.7,21l7.7,32l-25.1,18.1l3.6,32.6l-27.2,14.8l-0.4,32.9l-28.7,11.4l-4.5,32.6l-29.9,7.8
	l-8.4,31.7l-30.6,4L840.5,921l-30.9,0.2L793.7,950l-30.7-3.6L743.6,973l-30-7.3l-22.5,24l-28.9-11L637,999.8l-27.3-14.4l-27.6,17.8
	l-25.4-17.7l-29.6,14.2l-23-20.6L473,989.7l-20.3-23.3l-32.2,6.6l-17.3-25.6l-32.7,2.6l-14-27.6l-32.8-1.5l-10.5-29.1l-32.4-5.5
	l-6.8-30.2l-31.5-9.4l-3.1-30.8l-30.1-13.2l0.7-30.9l-28.3-16.8l4.5-30.6l-26-20.1l8.3-29.8l-23.3-23.2l11.9-28.5l-20.3-25.9
	l15.3-26.9l-17-28.2l18.5-24.8l-13.4-30l21.4-22.4l-9.6-31.5l23.9-19.5l-5.7-32.4l26.2-16.4l-1.6-32.9l28-13.1l2.5-32.8l29.4-9.6
	l6.5-32.2l30.4-5.9l10.3-31.2l30.9-2.1l14.1-29.7l30.9,1.7l17.7-27.7l30.4,5.4l20.9-25.3l29.5,9.1l23.9-22.6l28.1,12.8l26.5-19.5
	l26.4,16.1l28.7-16.1l24.2,19.2l30.4-12.5l21.7,22l31.7-8.5l18.8,24.5l32.6-4.6l15.7,26.6l32.9-0.6l12.2,28.4l32.7,3.5l8.7,29.7
	l32,7.4l5,30.5l30.8,11.3l1.2,30.9l29.2,15l-2.6,30.8l27.2,18.5l-6.4,30.3l24.7,21.7L1002.3,462.7z M1043.4,556.2
	C1043.4,301.5,836.9,95,582.2,95C327.5,95,121,301.5,121,556.2s206.5,461.2,461.2,461.2C836.9,1017.3,1043.4,810.9,1043.4,556.2"/>
</svg>
